<svg xmlns="http://www.w3.org/2000/svg" width="810" viewBox="0 0 810 810" height="810" version="1.0"><defs><clipPath id="a"><path d="M 0.0078125 313.101562 L 809.992188 313.101562 L 809.992188 533.566406 L 0.0078125 533.566406 Z M 0.0078125 313.101562"/></clipPath></defs><g clip-path="url(#a)"><path fill="#F9B30D" d="M 609.265625 368.742188 L 511.257812 386.457031 L 536.515625 526.015625 L 574.363281 463.976562 L 634.53125 508.304688 Z M 291.332031 384.171875 L 194.207031 362.21875 L 162.9375 500.566406 L 221.984375 458.242188 L 260.015625 522.519531 Z M 457.617188 391.722656 L 358.070312 391.257812 L 357.417969 533.101562 L 405.933594 479.03125 L 456.964844 533.566406 Z M 759.566406 313.273438 L 666.496094 348.699219 L 716.96875 481.269531 L 742.742188 413.304688 L 809.992188 445.792969 Z M 50.480469 318.261719 L 143.550781 353.6875 L 93.078125 486.253906 L 67.308594 418.292969 L 0.0078125 450.828125 L 50.480469 318.261719"/></g><path fill="#284495" d="M 716.507812 352.800781 C 713.988281 350.5625 709.558594 351.261719 708.671875 354.851562 C 707.277344 360.863281 710.308594 366.644531 712.542969 372.191406 C 715.0625 378.4375 718.371094 384.171875 722.144531 389.671875 C 724.007812 392.421875 727.734375 390.605469 727.273438 387.527344 C 726.335938 381.046875 725.128906 374.757812 723.308594 368.464844 C 721.863281 363.101562 720.839844 356.578125 716.507812 352.800781 Z M 390.367188 409.34375 C 388.96875 414.796875 390.273438 420.34375 390.789062 425.84375 C 391.347656 431.808594 391.207031 437.777344 391.859375 443.742188 C 392.230469 447.289062 396.984375 447.289062 397.40625 443.742188 C 398.058594 437.777344 397.917969 431.808594 398.476562 425.84375 C 398.988281 420.296875 400.292969 414.796875 398.894531 409.34375 C 397.871094 405.101562 391.4375 405.101562 390.367188 409.34375 Z M 72.898438 355.363281 C 67.867188 363.707031 64.929688 373.964844 60.921875 382.867188 C 59.382812 386.269531 64.136719 389.253906 66 385.851562 C 70.800781 377.085938 76.953125 367.902344 79.796875 358.300781 C 80.960938 354.105469 75.089844 351.726562 72.898438 355.363281 Z M 785.386719 304.835938 C 754.253906 320.683594 722.097656 334.0625 689.101562 345.34375 C 704.664062 373.265625 714.269531 408.503906 719.625 439.734375 C 720.234375 443.277344 715.433594 444.675781 714.222656 441.226562 C 708.671875 425.472656 703.78125 409.574219 697.769531 393.960938 C 691.945312 378.761719 684.441406 364.082031 679.082031 348.699219 C 672.699219 350.796875 666.265625 352.847656 659.835938 354.757812 C 567.136719 382.679688 470.109375 394.984375 373.496094 392.144531 C 373.542969 392.28125 373.542969 392.421875 373.589844 392.5625 C 377.039062 424.167969 374.941406 457.773438 373.824219 489.566406 C 373.683594 493.667969 367.765625 493.621094 367.484375 489.566406 C 365.339844 457.820312 362.21875 424.304688 364.734375 392.5625 C 364.734375 392.328125 364.828125 392.097656 364.828125 391.863281 C 263.371094 387.902344 162.65625 367.15625 68.191406 329.960938 C 64.648438 344.691406 57.566406 359.839844 51.972656 373.589844 C 46.007812 388.226562 39.902344 403.003906 32.679688 417.125 C 30.910156 420.578125 25.082031 418.152344 26.386719 414.46875 C 32.074219 398.15625 38.738281 382.121094 45.167969 366.085938 C 50.25 353.40625 54.394531 339.328125 60.734375 327.023438 C 48.757812 322.175781 36.917969 317.09375 25.175781 311.734375 C 19.769531 309.265625 24.476562 301.480469 29.789062 303.808594 C 72.480469 322.640625 116.378906 338.582031 161.398438 350.9375 C 276.558594 382.539062 397.683594 391.023438 516.152344 375.78125 C 608.289062 363.894531 697.582031 336.8125 783.007812 300.734375 C 785.710938 299.566406 788.183594 303.390625 785.386719 304.835938"/></svg>