<svg width="109" height="106" viewBox="0 0 109 106" fill="none" xmlns="http://www.w3.org/2000/svg">
<path d="M24.5315 54.5572C23.071 57.7818 21.043 61.7022 18.2742 66.4317C13.3571 74.8304 10.0381 80.1133 7.7418 83.5677C5.26045 87.3005 7.01418 92.475 11.431 93.5886L45.67 102.219C46.8778 102.524 48.1486 102.466 49.3241 102.053L72.924 93.7615C76.6988 92.4354 78.2816 88.0241 76.3516 84.5448C70.9342 74.7777 66.1102 63.2644 72.2063 50.4505C72.7937 49.216 73.0196 48.0422 72.8633 46.9413C72.7063 45.8349 72.1747 44.8821 71.3869 44.0772C69.8445 42.5016 67.2648 41.4338 64.2402 40.6981C58.1509 39.2171 49.6929 38.9568 42.2636 39.2089C40.7765 39.2597 39.0595 40.0164 37.359 41.0763C35.6329 42.1519 33.8194 43.6067 32.115 45.1882C28.7312 48.3283 25.6483 52.0916 24.5315 54.5572Z" fill="#3D618B" stroke="#273B52" stroke-width="2"/>
<path d="M47.6467 101.669C45.8192 101.8 37.3123 99.4317 33.2874 98.231L38.509 62.5404L53.8473 63.0315L59.0689 98.0672C56.0231 99.2133 49.4743 101.538 47.6467 101.669Z" fill="#FFE249" stroke="#FFE249" stroke-dasharray="1 1"/>
<path d="M30.6398 97.4903L25.0919 96.0172L35.0455 60.4903L36.9337 61.0594L30.6398 97.4903Z" fill="#128C95" stroke="#128C95" stroke-dasharray="1 1"/>
<path d="M29.6608 97.327L25.9078 96.3446L34.2296 65.7293L35.3718 66.3842L29.6608 97.327Z" fill="#16D1E4" fill-opacity="0.5" stroke="#FF5F49" stroke-dasharray="1 1"/>
<path d="M61.0841 96.8174L66.5925 95.2015L55.7326 59.9431L53.8594 60.5607L61.0841 96.8174Z" fill="#128C95" stroke="#128C95" stroke-dasharray="1 1"/>
<path d="M62.006 96.7575L65.9222 95.284L60.8501 81.9793L59.5583 82.6777L62.006 96.7575Z" fill="#16D1E4" fill-opacity="0.5" stroke="#FF5F49" stroke-dasharray="1 1"/>
<path d="M47.0188 101.828C45.7696 101.959 39.9547 100.419 37.2036 99.2133L40.7729 62.5404L51.2571 63.0335L55.6422 99.2133C53.5601 100.364 48.2681 101.696 47.0188 101.828Z" fill="#FFAB49" stroke="#FFAB49" stroke-width="2" stroke-dasharray="1 1"/>
<path d="M24.5315 54.5572C23.071 57.7818 21.0429 61.7022 18.2741 66.4317C13.3571 74.8304 10.038 80.1133 7.74179 83.5677C5.26086 87.2999 7.01012 92.474 11.4277 93.5876L45.6703 102.22C46.8781 102.524 48.1486 102.466 49.3241 102.054L72.9239 93.7615C76.6988 92.4354 78.2816 88.0241 76.3516 84.5448C70.9342 74.7777 66.1101 63.2644 72.2063 50.4505C72.7937 49.216 73.0195 48.0422 72.8632 46.9413C72.7063 45.8349 72.1746 44.8821 71.3868 44.0772C69.8445 42.5016 67.2647 41.4338 64.2401 40.6981C58.1508 39.2171 49.6929 38.9568 42.2636 39.2089C40.7764 39.2597 39.0595 40.0164 37.3589 41.0763C35.6329 42.1519 33.8194 43.6067 32.115 45.1882C28.7312 48.3283 25.6483 52.0916 24.5315 54.5572Z" stroke="#273B52" stroke-width="2"/>
<path d="M84.6171 32.9964C79.7858 32.7107 76.5015 30.2505 74.3538 29.0734L73.2432 42.9338C81.4251 47.0654 90.7455 46.219 94.1098 44.9976C96.0731 44.2851 102.826 40.0425 105.864 31.1041C108.902 22.1656 104.077 16.2433 104.619 19.5912C105.161 22.939 98.744 29.0249 95.9567 31.1809C93.1667 33.3389 90.6558 33.354 84.6171 32.9964Z" fill="#3A506A"/>
<path d="M22.3623 28.483C23.2596 31.3213 29.1187 30.0434 31.9361 29.0497L31.2173 41.2754L27.0932 41.0314C21.2017 40.6827 15.4656 37.6906 11.8303 34.1595C8.19507 30.6287 8.87005 26.6898 11.0471 22.3423C13.2241 17.9949 21.4788 13.3441 27.9175 9.41466C34.3562 5.48529 32.8332 3.73727 34.2267 2.65924C35.6202 1.58121 36.5154 3.95522 34.8983 8.83314C33.2812 13.7111 31.8586 15.2847 29.1118 19.2668C26.3651 23.249 21.2407 24.9351 22.3623 28.483Z" fill="#3A506A"/>
<path d="M84.6171 32.9964C79.7858 32.7107 76.5015 30.2505 74.3538 29.0734L73.2432 42.9338C81.4251 47.0654 90.7455 46.219 94.1098 44.9976C96.0731 44.2851 102.826 40.0425 105.864 31.1041C108.902 22.1656 104.077 16.2433 104.619 19.5912C105.161 22.939 98.744 29.0249 95.9567 31.1809C93.1667 33.3389 90.6558 33.354 84.6171 32.9964Z" stroke="#273B52" stroke-width="2"/>
<path d="M22.3623 28.483C23.2596 31.3213 29.1187 30.0434 31.9361 29.0497L31.2173 41.2754L27.0932 41.0314C21.2017 40.6827 15.4656 37.6906 11.8303 34.1595C8.19507 30.6287 8.87005 26.6898 11.0471 22.3423C13.2241 17.9949 21.4788 13.3441 27.9175 9.41466C34.3562 5.48529 32.8332 3.73727 34.2267 2.65924C35.6202 1.58121 36.5154 3.95522 34.8983 8.83314C33.2812 13.7111 31.8586 15.2847 29.1118 19.2668C26.3651 23.249 21.2407 24.9351 22.3623 28.483Z" stroke="#273B52" stroke-width="2"/>
<path d="M18.765 37.9827C25.8141 38.5066 28.773 39.9473 29.3713 40.6022V48.1332C28.0659 48.2969 24.1171 48.5261 18.765 48.1332C13.4129 47.7403 8.70262 44.3677 7.01648 42.7305C7.99552 40.9296 11.7159 37.4588 18.765 37.9827Z" fill="#3A506A"/>
<path d="M80.4446 42.7305H76.6916L72.4491 48.1332C73.8632 48.5153 77.8012 49.05 82.2395 48.1332C86.6779 47.2163 87.6788 46.1139 87.6243 45.6774C87.0803 44.6951 84.883 42.7305 80.4446 42.7305Z" fill="#3A506A"/>
<path d="M18.765 37.9827C25.8141 38.5066 28.773 39.9473 29.3713 40.6022V48.1332C28.0659 48.2969 24.1171 48.5261 18.765 48.1332C13.4129 47.7403 8.70262 44.3677 7.01648 42.7305C7.99552 40.9296 11.7159 37.4588 18.765 37.9827Z" stroke="#273B52" stroke-width="2"/>
<path d="M80.4446 42.7305H76.6916L72.4491 48.1332C73.8632 48.5153 77.8012 49.05 82.2395 48.1332C86.6779 47.2163 87.6788 46.1139 87.6243 45.6774C87.0803 44.6951 84.883 42.7305 80.4446 42.7305Z" stroke="#273B52" stroke-width="2"/>
<path d="M66.4009 19.1456L66.349 19.1601L66.3004 19.1828C63.0121 20.7147 59.0712 21.6108 54.8264 21.6108C50.4758 21.6108 48.1774 20.9793 44.6293 19.5308C44.4449 19.4556 44.271 19.384 44.1052 19.3159C41.4729 18.2336 38.7241 17.4809 36.0696 18.2389C33.9777 18.7642 32.0697 20.4278 30.6057 22.5004C29.1308 24.5884 28.044 27.1772 27.6414 29.6907L27.5859 30.0125L27.5849 30.0183L27.584 30.0242C27.0616 33.4175 26.5849 38.9705 26.8468 44.6394C27.1077 50.2825 28.1044 56.1593 30.6159 60.1095C35.4361 67.6903 44.7948 77.0324 49.0131 80.8945C49.4119 82.4338 51.2401 85.216 55.7414 86.8935C58.6972 87.995 62.1303 88.3683 65.1853 88.2848C68.2229 88.2019 70.9851 87.6643 72.5777 86.8653C75.1761 85.5618 76.5565 84.125 77.7092 82.9253L77.7128 82.9217C77.9141 82.7118 78.105 82.513 78.2953 82.3221C78.7094 81.9066 79.0253 81.3349 79.2681 80.7265C79.5145 80.1106 79.7028 79.4145 79.8409 78.7115C80.1157 77.311 80.2035 75.817 80.116 74.7649C80.0354 73.7957 79.9502 73.0049 79.6855 72.3288C79.4052 71.613 78.946 71.0721 78.2255 70.5298C77.4621 69.9555 76.7484 69.7427 76.1923 69.7875C75.3827 68.2296 74.1301 64.8963 74.2437 61.2513C74.3357 58.2922 75.2299 53.1066 76.0164 48.5529L76.0298 48.475C76.5963 45.1964 77.109 42.2275 77.1802 40.7986C77.2624 39.1532 77.4794 36.6267 77.6837 34.462C77.8893 33.4296 77.997 32.3622 77.997 31.2702C77.997 28.9348 77.7076 26.2327 76.8894 23.9552C76.0761 21.6906 74.6836 19.7036 72.3901 19.0838L72.3737 19.0794L72.3571 19.0758C69.8501 18.5362 67.7422 18.7729 66.4009 19.1456Z" fill="#3D618B" stroke="#273B52" stroke-width="2"/>
<path d="M36.8014 41.8785H36.8013L36.807 41.8811C38.6753 42.723 42.7578 44.5175 44.1232 44.9526L44.1889 44.7463L44.1232 44.9526C44.9631 45.2203 45.8021 45.6663 46.4515 46.2445C47.1003 46.8224 47.5569 47.5301 47.6398 48.3234C47.7246 49.1346 47.7663 49.9387 47.5775 50.7407C47.3889 51.5413 46.9705 52.3421 46.1306 53.1448C44.4693 54.7327 41.9676 54.3881 40.2819 53.4929C38.6047 52.6022 36.9147 50.4535 36.2389 48.2994C35.8683 47.1194 35.5285 44.9125 35.2962 43.0739C35.1787 42.1449 36.0559 41.52 36.8014 41.8785ZM74.5056 43.1786H74.5057C74.6778 43.0495 74.9325 42.9669 75.1166 42.9703C75.2095 42.972 75.2455 42.9946 75.2518 43.0002C75.2519 43.0003 75.252 43.0004 75.2521 43.0004C75.2524 43.0006 75.2525 43.0007 75.2531 43.0029C75.2545 43.0075 75.2585 43.0255 75.252 43.0636L75.2485 43.0843V43.1053C75.2485 43.8509 75.0313 45.4158 74.7766 47.0598C74.6838 47.6585 74.5864 48.2659 74.4939 48.8429C74.3354 49.8309 74.1912 50.7298 74.1093 51.3429C73.9989 51.8478 73.8999 52.2602 73.8177 52.5404L73.8175 52.5411C73.7765 52.6824 73.7402 52.7873 73.7098 52.8532L73.7092 52.8545C73.7046 52.8646 73.7001 52.8739 73.6957 52.8823C73.5737 52.8073 73.294 52.6189 72.9628 52.3765C72.5796 52.096 72.1499 51.7597 71.8507 51.4747C71.5448 51.1834 71.2455 50.8598 71.0126 50.5318C70.7794 50.2035 70.6159 49.8752 70.5752 49.5731C70.4056 48.3135 70.4093 46.8938 71.5771 45.653C72.2882 44.8982 73.5565 43.8897 74.5056 43.1786Z" fill="#273B52" stroke="#FFE249" stroke-width="0.5"/>
<path d="M71.1436 72.1997C73.4933 70.628 74.0808 70.3988 75.5493 70.3988C76.8547 70.3988 77.9969 71.0537 78.3233 71.3811C78.6496 71.7086 79.3023 72.1997 79.4655 74.0006C79.6287 75.8015 79.7918 77.7662 79.3023 79.2396C78.8128 80.7131 77.997 82.3503 76.5285 83.66C75.0599 84.9698 73.4281 86.2795 70.9805 86.9344C68.5329 87.5893 67.8802 87.9167 63.1481 87.753C58.4161 87.5893 56.9475 86.9344 55.6421 86.607C54.3368 86.2795 50.7469 83.8237 50.0942 82.3503C49.4415 80.8768 49.1152 79.8945 48.952 77.275C48.7888 74.6555 50.5838 70.89 53.3577 70.5626C56.1317 70.2351 57.9266 70.5626 61.0269 71.5449C64.1272 72.5272 68.2065 74.1644 71.1436 72.1997Z" fill="#3A506A" stroke="#273B52" stroke-width="2"/>
<path d="M60.7005 77.9299C59.6562 76.6201 58.1984 76.1837 57.6002 76.129C56.893 76.129 55.6421 75.8016 55.1526 76.7839C54.7806 77.5304 54.8263 78.9122 56.458 79.8945C58.0897 80.8768 60.0478 80.5494 60.7005 80.3857C61.3532 80.2219 62.0059 79.5671 60.7005 77.9299Z" fill="#26363B"/>
<path d="M71.4993 78.1827C72.4441 76.8471 73.7629 76.4018 74.3043 76.3461C74.9439 76.3461 76.076 76.0121 76.5189 77.0141C76.8557 77.7754 76.8142 79.1843 75.3378 80.1859C73.8614 81.1876 72.0897 80.8536 71.4993 80.6866C70.9086 80.5199 70.3179 79.852 71.4993 78.1827Z" fill="#26363B"/>
<path d="M52.873 35.2747L53.1511 35.4563L53.2401 35.319L53.5184 35.5009L53.4294 35.6379L53.7074 35.8195L53.7965 35.6825L54.0748 35.864L53.9858 36.0014L54.2641 36.183L54.3528 36.0456L54.6312 36.2272L54.5422 36.3645L54.8205 36.5461L54.9096 36.4091L55.1876 36.5907L55.0985 36.7277L55.3769 36.9096L55.4659 36.7723L55.6002 36.86L55.7262 36.93L55.647 37.0732L55.9089 37.2192L55.9881 37.076L56.2499 37.222L56.1707 37.3652L56.4325 37.5111L56.5118 37.368L56.7736 37.5139L56.6944 37.6571L56.9562 37.8031L57.0354 37.6599L57.2973 37.8059L57.2181 37.9491L57.4799 38.095L57.5591 37.9518L57.821 38.0978L57.7418 38.241L58.0036 38.387L58.025 38.3482L58.0201 38.3433C58.0256 38.3377 58.0314 38.3321 58.0369 38.3265L58.0828 38.2438L58.1067 38.2574C58.1158 38.2482 58.1249 38.239 58.1343 38.2298L58.2495 38.3457C58.3248 38.27 58.4024 38.1917 58.4819 38.1101L58.3651 37.9957C58.4395 37.9194 58.5158 37.8401 58.5936 37.7585L58.7114 37.8718C58.7857 37.7938 58.8617 37.7132 58.9389 37.6309L58.8199 37.5186C58.8935 37.4399 58.9688 37.359 59.0447 37.2764L59.1648 37.3874C59.2378 37.3078 59.3118 37.2269 59.3867 37.1439L59.266 37.0339C59.3384 36.954 59.4114 36.8724 59.4857 36.7895L59.6073 36.8985C59.6797 36.8173 59.753 36.7347 59.8267 36.6508L59.7044 36.5424C59.7764 36.4605 59.849 36.3776 59.9224 36.2931L60.0453 36.4008C60.1167 36.3186 60.1884 36.2357 60.2607 36.1511L60.1368 36.0444C60.2078 35.9618 60.2788 35.8783 60.3505 35.7938L60.4751 35.8998C60.5458 35.8163 60.6171 35.7315 60.6888 35.6459L60.5636 35.5405C60.6337 35.4573 60.7037 35.3728 60.7744 35.2876L60.8999 35.3924C60.9697 35.3079 61.0394 35.223 61.1098 35.1368L60.9836 35.0331C61.053 34.9482 61.1227 34.8627 61.1924 34.7766L61.3192 34.8797C61.388 34.7945 61.4567 34.709 61.5258 34.6225L61.3986 34.5201C61.4667 34.4346 61.5351 34.3484 61.6038 34.2616L61.7316 34.3634C61.7997 34.2773 61.8681 34.1905 61.9362 34.1027L61.8081 34.0019C61.8752 33.9157 61.9426 33.8293 62.0097 33.7418L62.1388 33.8423C62.2059 33.7552 62.2733 33.6674 62.3404 33.5796L62.211 33.4798C62.2774 33.393 62.3439 33.3052 62.41 33.2171L62.5404 33.316C62.6065 33.2282 62.6726 33.1401 62.7387 33.0513L62.608 32.9535C62.6734 32.8654 62.7389 32.7769 62.8044 32.6879L62.9357 32.7851C63.0009 32.6966 63.0657 32.6076 63.1308 32.5185L62.9988 32.422C63.0633 32.3332 63.1277 32.244 63.1919 32.1545L63.3242 32.2501C63.3887 32.1606 63.4525 32.0708 63.5163 31.9807L63.3833 31.8859C63.4468 31.7962 63.51 31.7063 63.5728 31.6161L63.7065 31.71C63.7696 31.6196 63.8325 31.5289 63.895 31.4381L63.7607 31.3451C63.8229 31.2545 63.8851 31.1637 63.9466 31.0727L64.0815 31.1648C64.1434 31.0735 64.2049 30.982 64.2661 30.8903L64.1305 30.7992C64.1917 30.7077 64.2523 30.6161 64.3125 30.5244L64.4487 30.6145C64.5096 30.5221 64.5698 30.4297 64.6294 30.3371L64.4925 30.2481C64.5521 30.1557 64.6113 30.0633 64.6699 29.9708L64.8077 30.0588C64.867 29.9653 64.9259 29.8718 64.9841 29.7783L64.8456 29.6915C64.9039 29.5981 64.9615 29.5047 65.0184 29.4113L65.1576 29.4969C65.2152 29.4024 65.2724 29.308 65.3287 29.2136L65.1889 29.1294C65.2455 29.0347 65.3015 28.9402 65.3568 28.8457L65.4976 28.9286C65.5532 28.8333 65.6082 28.738 65.6625 28.6429L65.5211 28.5614C65.5761 28.4655 65.6301 28.3697 65.6834 28.2741L65.8258 28.354C65.8798 28.2571 65.9328 28.1605 65.9852 28.0641L65.8418 27.9858C65.8942 27.889 65.9459 27.7924 65.9966 27.6962L66.1409 27.7726C66.1926 27.6742 66.2437 27.576 66.2934 27.4781L66.1481 27.4035C66.1982 27.3053 66.2473 27.2075 66.2954 27.1101L66.4417 27.1826C66.4908 27.0829 66.5385 26.9837 66.5853 26.8848L66.4381 26.8145C66.4852 26.7145 66.5317 26.615 66.5766 26.5159L66.7251 26.5838C66.7709 26.4826 66.8157 26.3818 66.8589 26.2816L66.7094 26.2164C66.753 26.1153 66.7952 26.0148 66.8361 25.915L66.9872 25.9772C67.0297 25.8736 67.0706 25.7707 67.1099 25.6685L66.9575 25.6096C66.9772 25.5589 66.9962 25.5083 67.0152 25.458C67.0341 25.4066 67.0531 25.3553 67.0718 25.3042L67.2251 25.3611C67.2631 25.2576 67.3008 25.1549 67.3374 25.0532L67.1841 24.9973C67.2214 24.8938 67.2584 24.7912 67.2944 24.6896L67.4481 24.7445C67.4851 24.6403 67.5214 24.5371 67.5568 24.4348L67.4028 24.3808C67.4391 24.2768 67.4744 24.1738 67.5092 24.0718L67.6635 24.1247C67.6991 24.0202 67.7342 23.9166 67.7682 23.8142L67.6136 23.7623C67.6483 23.6576 67.6827 23.5539 67.7157 23.4514L67.871 23.5023C67.9054 23.3971 67.9388 23.2931 67.9715 23.1903L67.8159 23.1405C67.8493 23.0353 67.8821 22.9313 67.9138 22.8285L68.0698 22.8772C68.1025 22.7714 68.1346 22.6668 68.1657 22.5636L68.0094 22.5161C68.0415 22.4103 68.0726 22.3059 68.1028 22.2029L68.2593 22.2492C68.2907 22.1427 68.3209 22.0377 68.3504 21.9342L68.1935 21.8892C68.2239 21.7827 68.2534 21.6778 68.2819 21.5744L68.4391 21.6181C68.4686 21.511 68.4974 21.4055 68.5249 21.3018L68.3674 21.2594C68.3959 21.1523 68.4234 21.0471 68.4499 20.9436L68.6081 20.9845C68.6359 20.8764 68.6624 20.7703 68.6883 20.6662L68.5298 20.6268C68.5564 20.5188 68.5819 20.413 68.6065 20.3095L68.7653 20.3472C68.7908 20.2382 68.8154 20.1317 68.839 20.0275L68.6796 19.9915C68.7041 19.8826 68.7274 19.7764 68.7494 19.6729L68.9088 19.7071C68.9324 19.597 68.9543 19.4899 68.975 19.386L68.8152 19.3539C68.8248 19.3056 68.834 19.258 68.8432 19.2111C68.8441 19.1918 68.8486 19.1724 68.8563 19.1538C68.8708 19.1186 68.8932 19.0953 68.9101 19.0814C68.9416 19.0557 68.9761 19.0435 68.9963 19.0374C69.0406 19.0238 69.0961 19.0162 69.1512 19.0113L69.1658 19.1743C69.2561 19.1662 69.3791 19.1632 69.5198 19.1645L69.5212 19.0008C69.6335 19.0018 69.7562 19.0055 69.8816 19.0114L69.8743 19.1749C69.9911 19.1803 70.111 19.1876 70.2278 19.1965L70.24 19.0332C70.3651 19.0427 70.4872 19.054 70.5989 19.0666L70.5808 19.2293C70.7199 19.245 70.8421 19.2628 70.9312 19.2817L70.965 19.1215C71.0176 19.1327 71.0692 19.146 71.1101 19.1629C71.1294 19.1709 71.1575 19.184 71.1831 19.2052C71.2054 19.2238 71.2599 19.2785 71.2502 19.3662C71.2443 19.4199 71.2384 19.4742 71.2318 19.5289L71.0698 19.5101C71.0573 19.6171 71.0445 19.7259 71.0304 19.8365L71.1924 19.8569C71.1789 19.9645 71.1648 20.0737 71.1497 20.1844L70.9881 20.1624C70.9736 20.2695 70.9585 20.378 70.9425 20.4879L71.1041 20.5114C71.0884 20.619 71.0723 20.7278 71.0553 20.8379L70.8939 20.813C70.8775 20.92 70.8605 21.0283 70.8428 21.1376L71.0038 21.164C70.9861 21.2715 70.9681 21.3801 70.949 21.4897L70.7883 21.4618C70.77 21.5688 70.7506 21.6768 70.731 21.7857L70.8917 21.815C70.872 21.9224 70.852 22.0307 70.8311 22.1398L70.671 22.1091C70.6507 22.2158 70.6297 22.3234 70.6081 22.4317L70.7681 22.4638C70.7468 22.5708 70.7249 22.6785 70.7023 22.7869L70.5425 22.7533C70.5202 22.8597 70.4973 22.9668 70.474 23.0745L70.6335 23.1095C70.6102 23.2163 70.5863 23.3237 70.5618 23.4316L70.4026 23.3953C70.3784 23.5015 70.3538 23.6083 70.3286 23.7156L70.4871 23.7534C70.4619 23.86 70.4363 23.9671 70.4098 24.0746L70.2513 24.0354C70.2254 24.1412 70.1986 24.2473 70.1714 24.3539L70.3296 24.3946C70.3024 24.5006 70.2749 24.607 70.2464 24.7138L70.0889 24.6717C70.0607 24.7771 70.0322 24.8828 70.0031 24.9889L70.1603 25.0325C70.1311 25.1382 70.1016 25.2442 70.0712 25.3505L69.9143 25.3055C69.8842 25.4105 69.8537 25.5157 69.8226 25.6212L69.9789 25.6678C69.9478 25.7729 69.9163 25.8781 69.8839 25.9836L69.728 25.9355C69.6959 26.0399 69.6635 26.1445 69.6301 26.2492L69.7857 26.2988C69.7523 26.4035 69.7186 26.5082 69.6843 26.6132L69.5293 26.562C69.4953 26.6658 69.4605 26.7698 69.4252 26.8738L69.5795 26.9266C69.5445 27.0305 69.5085 27.1345 69.4718 27.2385L69.3182 27.1841C69.2818 27.2872 69.2448 27.3903 69.2075 27.4935L69.3609 27.5495C69.3232 27.6528 69.2853 27.7562 69.2463 27.8595L69.0936 27.8017C69.0553 27.9041 69.016 28.0064 68.9764 28.1088L69.1285 28.1682C69.0886 28.2706 69.0483 28.373 69.0074 28.4753L68.856 28.4142C68.8151 28.5157 68.7738 28.6171 68.7319 28.7183L68.8824 28.7813C68.8402 28.8829 68.7976 28.9844 68.7541 29.0858L68.604 29.0211C68.5611 29.1216 68.5172 29.222 68.4727 29.3222L68.6219 29.3887C68.5774 29.4893 68.5322 29.5897 68.4861 29.69L68.3379 29.6216C68.2924 29.7211 68.2462 29.8203 68.1991 29.9194L68.3467 29.9896C68.2995 30.0892 68.2514 30.1885 68.203 30.2875L68.0567 30.2153C68.0086 30.3136 67.9595 30.4116 67.9101 30.5092L68.0557 30.5834C68.006 30.6817 67.9553 30.7797 67.9042 30.8774L67.7599 30.8012C67.7088 30.8981 67.6575 30.9948 67.6054 31.091L67.7488 31.1692C67.6961 31.2661 67.6427 31.3627 67.5888 31.4589L67.4467 31.3786C67.393 31.4741 67.339 31.5691 67.284 31.6638L67.4248 31.7462C67.3973 31.7939 67.3692 31.8415 67.3414 31.8889C67.3132 31.9366 67.2847 31.9843 67.2563 32.032L67.1165 31.9479C67.0595 32.043 67.0026 32.1381 66.945 32.2333L67.0845 32.3183C67.0269 32.4132 66.969 32.5082 66.9107 32.6031L66.7719 32.517C66.7137 32.6117 66.6551 32.7059 66.5962 32.8002L66.7347 32.8873C66.6758 32.9812 66.6169 33.0755 66.5573 33.1695L66.4195 33.0818C66.3602 33.1754 66.3007 33.269 66.2408 33.3623L66.378 33.451C66.3178 33.5446 66.2576 33.638 66.197 33.7313L66.0602 33.6419C65.9999 33.7346 65.9391 33.8276 65.8782 33.9202L66.0141 34.0106C65.9529 34.1032 65.8917 34.1959 65.8299 34.2885L65.6943 34.1976C65.6328 34.2899 65.5709 34.3819 65.5091 34.4739L65.644 34.5655C65.5818 34.6579 65.5193 34.7499 65.4568 34.8416L65.3222 34.749C65.2594 34.8407 65.1966 34.932 65.1337 35.0234L65.2677 35.1166C65.2045 35.208 65.1411 35.2994 65.0776 35.3901L64.9439 35.2961C64.8801 35.3872 64.8163 35.4779 64.7525 35.5683L64.8855 35.6632C64.821 35.7542 64.7565 35.8446 64.6921 35.9347L64.5594 35.8394C64.4949 35.9298 64.4301 36.0199 64.3653 36.1093L64.4974 36.2055C64.4319 36.2959 64.3661 36.386 64.3007 36.4754L64.1693 36.3785C64.1035 36.4679 64.0381 36.557 63.9723 36.6457L64.1033 36.7433C64.0369 36.8333 63.9701 36.9224 63.9037 37.0115L63.7733 36.913C63.7065 37.0021 63.6398 37.0902 63.5733 37.1779L63.7034 37.2771C63.6357 37.3662 63.5683 37.455 63.5008 37.5428L63.3714 37.4429C63.3033 37.5314 63.2356 37.6191 63.1682 37.7063L63.297 37.8068C63.2282 37.8949 63.1602 37.9823 63.0921 38.0691L62.9639 37.9677C62.8946 38.0558 62.8255 38.1429 62.7568 38.2294L62.8843 38.3315C62.8146 38.419 62.7452 38.5058 62.6761 38.5913L62.5493 38.4882C62.4789 38.5753 62.4089 38.6615 62.3395 38.7463L62.4657 38.8501C62.3943 38.9373 62.3233 39.0234 62.2526 39.1083L62.1274 39.0035C62.0561 39.0897 61.985 39.1745 61.9146 39.2581L62.0392 39.3635C61.9666 39.4497 61.8946 39.5345 61.8229 39.6181L61.6993 39.5113C61.626 39.5972 61.5533 39.681 61.481 39.7639L61.6039 39.8717C61.5296 39.9565 61.4563 40.0401 61.3836 40.122L61.2617 40.013C61.1874 40.0968 61.1137 40.1788 61.0407 40.259L61.1614 40.3694C61.0848 40.454 61.0089 40.5366 60.9342 40.6168L60.8149 40.5052C60.7373 40.5884 60.6614 40.6694 60.5864 40.748L60.7041 40.861C60.6253 40.9439 60.5474 41.0242 60.4711 41.1019L60.355 40.9869C60.2751 41.0679 60.1965 41.1463 60.1199 41.2213L60.2338 41.3386C60.151 41.4196 60.0701 41.4973 59.9912 41.571L59.8799 41.4511C59.7955 41.5305 59.7133 41.6049 59.6341 41.6751L59.7418 41.798C59.6524 41.877 59.566 41.9502 59.4828 42.0177L59.38 41.8906C59.2877 41.9657 59.1999 42.033 59.1167 42.0923L59.2114 42.2258C59.107 42.3003 59.0085 42.3637 58.9157 42.4149L58.837 42.2716C58.7195 42.3367 58.6163 42.3782 58.5296 42.3941L58.5588 42.555C58.4946 42.5668 58.4277 42.5694 58.363 42.556C58.3105 42.5648 58.2553 42.5667 58.1989 42.5638L58.2075 42.4C58.1177 42.3952 58.0122 42.3748 57.8916 42.3395L57.8457 42.4965C57.7451 42.4669 57.6362 42.4282 57.5204 42.381L57.5819 42.2291C57.4884 42.1909 57.389 42.1466 57.2839 42.0964L57.2136 42.2441C57.1193 42.1988 57.0212 42.1489 56.9187 42.0947L56.995 41.9499C56.904 41.9016 56.8094 41.8497 56.7119 41.7942L56.6314 41.9368C56.5394 41.8845 56.4448 41.829 56.3479 41.7709L56.4317 41.6303C56.3413 41.5761 56.2483 41.519 56.1534 41.4596L56.0666 41.5982C55.9759 41.5411 55.8829 41.482 55.7883 41.4202L55.877 41.2829C55.7889 41.2254 55.6992 41.1663 55.6081 41.1052L55.5175 41.2412C55.4281 41.1815 55.3377 41.1197 55.2456 41.0564L55.3379 40.9213C55.2501 40.8608 55.1611 40.7984 55.0706 40.7347L54.9767 40.8685C54.8892 40.8067 54.8011 40.7437 54.7117 40.679L54.8069 40.5462C54.7195 40.4831 54.6307 40.4185 54.5413 40.3525L54.4447 40.4843C54.3589 40.4212 54.2724 40.3568 54.1849 40.2911L54.2824 40.16C54.1963 40.0953 54.1088 40.0292 54.021 39.9619L53.9221 40.0921C53.8369 40.0274 53.7514 39.9614 53.6649 39.8944L53.7647 39.7648C53.6795 39.6985 53.5933 39.6315 53.5068 39.5632L53.406 39.6917C53.3218 39.6254 53.2369 39.5581 53.1514 39.4897L53.2532 39.3618C53.1686 39.2942 53.0834 39.2259 52.9979 39.1562L52.8954 39.2838C52.8121 39.2161 52.7282 39.1475 52.6437 39.0782L52.7471 38.9516C52.6635 38.8829 52.5793 38.8133 52.4944 38.7427L52.3903 38.8687C52.3077 38.8 52.2248 38.7307 52.1415 38.6604L52.2466 38.5351C52.1633 38.4648 52.0801 38.3942 51.9961 38.3226L51.8904 38.4476C51.8088 38.3776 51.7268 38.3073 51.6445 38.2364L51.7509 38.112C51.669 38.0414 51.5867 37.9698 51.5041 37.8975L51.3967 38.0212C51.3157 37.9503 51.2341 37.8787 51.1524 37.8064L51.2601 37.6834C51.1791 37.6118 51.0978 37.5395 51.0165 37.4669L50.9078 37.5889C50.8272 37.517 50.7462 37.4441 50.6649 37.3708L50.7742 37.2491C50.6942 37.1768 50.6138 37.1039 50.5335 37.0303L50.4235 37.1514C50.3432 37.0782 50.2628 37.0042 50.1821 36.9297L50.2928 36.8093C50.2134 36.736 50.1344 36.6624 50.055 36.5885L49.9437 36.7083C49.8644 36.634 49.7847 36.5591 49.705 36.4839L49.8166 36.3648C49.7382 36.2906 49.6598 36.216 49.5811 36.1411L49.4685 36.2599C49.3901 36.1847 49.3114 36.1094 49.2326 36.0336L49.3459 35.9154C49.2679 35.8402 49.1898 35.7646 49.1117 35.6884L48.9981 35.8059C48.9204 35.7304 48.8429 35.6541 48.7652 35.5776L48.8795 35.4608C48.802 35.3845 48.7246 35.308 48.6475 35.2308L48.5323 35.347C48.4558 35.2704 48.3791 35.1936 48.3023 35.1167L48.4179 35.0012C48.3414 34.924 48.2653 34.8468 48.1889 34.7689L48.0726 34.8838C47.9965 34.8063 47.9204 34.7284 47.8443 34.6502L47.9611 34.536C47.8857 34.4581 47.8105 34.3802 47.7351 34.3017L47.6175 34.4153C47.542 34.3368 47.4669 34.258 47.3914 34.1788L47.5096 34.0658C47.4351 33.9873 47.3606 33.9085 47.2865 33.8293L47.1676 33.9416C47.0931 33.8624 47.0189 33.7826 46.9444 33.7027L47.0639 33.5911C46.9901 33.5116 46.9166 33.4318 46.843 33.3516L46.7229 33.4626C46.6494 33.3824 46.5762 33.3019 46.503 33.2211L46.6235 33.1111C46.5506 33.0306 46.478 32.9498 46.4055 32.8686L46.284 32.9783C46.2115 32.8972 46.1389 32.8157 46.0667 32.7342L46.1888 32.6255C46.1169 32.5443 46.045 32.4627 45.9738 32.3808L45.851 32.4888C45.7794 32.4067 45.7078 32.3244 45.6366 32.2419L45.76 32.1348C45.6891 32.0525 45.6185 31.97 45.5482 31.8873L45.4241 31.9937C45.3535 31.9107 45.2829 31.8275 45.213 31.7441L45.3377 31.6386C45.2678 31.5554 45.1981 31.4719 45.1288 31.3883L45.0034 31.4929C44.9338 31.409 44.8648 31.3248 44.7958 31.2405L44.9219 31.1367C44.8533 31.0525 44.7849 30.9682 44.7166 30.8836L44.5899 30.9865C44.5212 30.9015 44.4532 30.8163 44.3856 30.7309L44.5133 30.6289C44.4456 30.5439 44.3786 30.4587 44.3119 30.3733L44.1835 30.4743C44.1161 30.3881 44.0491 30.3018 43.9827 30.2153L44.1118 30.1153C44.0457 30.0291 43.9797 29.9428 43.9143 29.8564L43.7846 29.9554C43.7517 29.912 43.7189 29.8686 43.6863 29.8251C43.6521 29.7798 43.6183 29.7345 43.5848 29.6894L43.7154 29.5913C43.6481 29.5012 43.5817 29.4116 43.5159 29.3225L43.3846 29.42C43.3175 29.3291 43.2511 29.2387 43.1854 29.1488L43.3171 29.052C43.251 28.9615 43.1856 28.8714 43.1211 28.7818L42.9888 28.8779C42.9224 28.7861 42.857 28.6947 42.7922 28.6039L42.9249 28.5086C42.8598 28.4175 42.7953 28.3268 42.7319 28.2367L42.5986 28.3312C42.5335 28.2386 42.4687 28.1464 42.4049 28.0548L42.5389 27.961C42.4744 27.8688 42.4109 27.7771 42.3485 27.686L42.2142 27.779C42.15 27.6859 42.0869 27.5934 42.0244 27.5016L42.1594 27.4094C42.0959 27.316 42.0334 27.2232 41.9715 27.131L41.8363 27.2223C41.7738 27.1288 41.7119 27.036 41.6511 26.9437L41.787 26.8533C41.7245 26.7588 41.6633 26.6651 41.6024 26.5719L41.4658 26.6614C41.4043 26.5666 41.3435 26.4725 41.2836 26.379L41.4208 26.2905C41.3599 26.196 41.3004 26.1021 41.2415 26.0089L41.1039 26.0966C41.043 26.0004 40.9831 25.905 40.9245 25.8103L41.0628 25.7237C41.0032 25.6278 40.9449 25.5327 40.887 25.4384L40.7481 25.5239C40.6892 25.4277 40.6312 25.3322 40.5746 25.2375L40.7142 25.153C40.6559 25.0558 40.5986 24.9594 40.5423 24.8639L40.4017 24.9472C40.3441 24.8494 40.2875 24.7524 40.2318 24.6563L40.373 24.5742C40.3167 24.4765 40.261 24.3797 40.2067 24.2839L40.0652 24.3648C40.0092 24.2663 39.9545 24.1687 39.9008 24.0721L40.0433 23.9924C39.9883 23.8932 39.9342 23.7949 39.8815 23.6977L39.738 23.776C39.6839 23.6759 39.6306 23.5769 39.5788 23.4789L39.7227 23.402C39.6696 23.3019 39.6178 23.203 39.5671 23.1052L39.4222 23.1806C39.3701 23.0796 39.319 22.9797 39.2692 22.8809L39.4147 22.807C39.3636 22.7059 39.3141 22.606 39.2656 22.5074L39.1195 22.5797C39.069 22.4773 39.0202 22.3763 38.973 22.2766L39.1201 22.2061C39.0713 22.1034 39.0238 22.0021 38.9779 21.9023L38.8297 21.9711C38.7819 21.867 38.7353 21.7645 38.6904 21.6636L38.8395 21.5968C38.793 21.4927 38.7484 21.3903 38.7054 21.2896L38.5553 21.3543C38.51 21.2487 38.4667 21.145 38.4248 21.0431L38.5755 20.9808C38.5322 20.8749 38.4906 20.7711 38.4505 20.6694L38.2988 20.7293C38.2564 20.6216 38.2164 20.516 38.1777 20.4128L38.3307 20.3555C38.2907 20.2478 38.2526 20.1425 38.2165 20.0398L38.0627 20.0941C38.0243 19.9845 37.9882 19.8776 37.954 19.7735L38.1091 19.7225C38.0733 19.6129 38.0401 19.5065 38.0089 19.4033L37.8528 19.4506C37.8186 19.3377 37.7873 19.2285 37.7587 19.123L37.9161 19.0799C37.8858 18.9675 37.8582 18.8594 37.8335 18.7557L37.6747 18.7938C37.6614 18.7373 37.6487 18.6821 37.637 18.6281C37.6263 18.5798 37.6335 18.5292 37.6594 18.485C37.6827 18.4452 37.7152 18.4206 37.7403 18.4059C37.7881 18.3777 37.8454 18.3642 37.894 18.3562L37.9203 18.5178C37.9973 18.5053 38.1066 18.501 38.2411 18.5037L38.2441 18.34C38.3433 18.342 38.4547 18.3477 38.5745 18.3566L38.5623 18.5199C38.6622 18.5273 38.7693 18.5371 38.8813 18.5489L38.8984 18.3861C39.0016 18.397 39.1093 18.4097 39.22 18.4239L39.1993 18.5863C39.3029 18.5996 39.4093 18.6143 39.5171 18.6303L39.5407 18.4683C39.6462 18.4839 39.7534 18.5007 39.8605 18.5185L39.8339 18.6801C39.9391 18.6975 40.0449 18.716 40.1498 18.7354L40.1793 18.5744C40.2861 18.5941 40.3923 18.6147 40.4972 18.6361L40.4644 18.7966C40.5712 18.8184 40.6761 18.841 40.7781 18.8643L40.8144 18.7046C40.9236 18.7295 41.0294 18.7552 41.1307 18.7814L41.0901 18.94C41.1993 18.9682 41.3029 18.997 41.399 19.0263L41.4465 18.8696C41.5612 18.9045 41.6674 18.9404 41.7616 18.977L41.703 19.1297C41.8237 19.1766 41.9219 19.2239 41.9906 19.2706L42.0823 19.135C42.1461 19.1785 42.2209 19.2421 42.2517 19.3318L42.0973 19.3851L42.2517 19.3318C42.2693 19.3835 42.2872 19.4355 42.3054 19.488L42.1513 19.5418C42.1871 19.6452 42.2239 19.7502 42.2616 19.8566L42.4154 19.8018C42.4518 19.9049 42.4893 20.0093 42.5277 20.115L42.3743 20.1708C42.4114 20.2741 42.4498 20.3786 42.4885 20.4842L42.6416 20.4274C42.6797 20.5302 42.7181 20.6339 42.7574 20.7386L42.605 20.7965C42.6437 20.8994 42.6831 21.0033 42.7232 21.108L42.8756 21.0492C42.9149 21.1517 42.955 21.255 42.9957 21.359L42.8436 21.4188C42.8839 21.5215 42.9246 21.6248 42.966 21.7288L43.1174 21.668C43.1584 21.7702 43.1997 21.873 43.2417 21.9763L43.0906 22.038C43.1319 22.1404 43.1743 22.2432 43.2169 22.3465L43.3677 22.2836C43.41 22.3854 43.4526 22.4876 43.4959 22.5901L43.3458 22.654C43.3888 22.7559 43.4324 22.8582 43.4766 22.9607L43.6264 22.8957C43.67 22.997 43.714 23.0986 43.7589 23.2003L43.6094 23.2663C43.654 23.3677 43.6993 23.4693 43.7448 23.571L43.8936 23.5038C43.9385 23.6046 43.9844 23.7054 44.0307 23.8063L43.8822 23.8746C43.9284 23.9755 43.975 24.0763 44.0222 24.1771L44.17 24.1076C44.2168 24.2078 44.264 24.3078 44.3115 24.4077L44.1644 24.4785C44.2123 24.5786 44.2608 24.6787 44.3093 24.7786L44.4561 24.7066C44.5046 24.806 44.5534 24.9052 44.6028 25.0042L44.457 25.0775C44.5065 25.1769 44.5566 25.2761 44.6071 25.375L44.7522 25.3003C44.8027 25.3988 44.8535 25.4971 44.9046 25.5949L44.7604 25.671C44.8118 25.7696 44.8639 25.8678 44.9163 25.9655L45.0598 25.8879C45.1122 25.9855 45.1649 26.0826 45.2183 26.1792L45.0755 26.2584C45.1292 26.3559 45.1832 26.4529 45.2379 26.5494L45.3798 26.4686C45.4341 26.5651 45.4891 26.6609 45.5444 26.756L45.4036 26.8385C45.4595 26.9349 45.5159 27.0306 45.5728 27.1256L45.7127 27.0413C45.7697 27.1363 45.8269 27.2306 45.8845 27.3241L45.746 27.4103C45.8046 27.5053 45.8635 27.5993 45.923 27.6926L46.0603 27.6044C46.1198 27.6978 46.1801 27.7903 46.2403 27.8818L46.1043 27.9722C46.1658 28.0654 46.2277 28.1577 46.2898 28.2488L46.4245 28.1562C46.4869 28.2477 46.5501 28.338 46.6132 28.4271L46.4802 28.5221C46.545 28.6133 46.6104 28.7033 46.6758 28.7919L46.8068 28.6943C46.8397 28.7385 46.8722 28.7824 46.9054 28.8259C46.9389 28.8705 46.9725 28.9148 47.0063 28.9589L46.8766 29.0583C46.9443 29.1473 47.012 29.2355 47.0794 29.3226L47.2084 29.2222C47.2767 29.3104 47.3448 29.3976 47.4124 29.4839L47.2844 29.5852C47.3537 29.6734 47.4227 29.7605 47.4914 29.8467L47.6188 29.7443C47.6884 29.8317 47.758 29.9181 47.8274 30.0034L47.7006 30.1067C47.7712 30.1939 47.8419 30.28 47.9118 30.365L48.0376 30.2607C48.1088 30.347 48.1795 30.4322 48.2497 30.5163L48.125 30.6216C48.1969 30.7076 48.2688 30.7926 48.3401 30.8763L48.4642 30.77C48.5364 30.8552 48.6087 30.9393 48.6802 31.0221L48.5571 31.1294C48.6307 31.2144 48.7036 31.2981 48.7761 31.3806L48.8986 31.2723C48.9725 31.3564 49.0457 31.4392 49.1185 31.5207L48.9971 31.6301C49.0722 31.714 49.1468 31.7965 49.2203 31.8777L49.3411 31.7673C49.4166 31.8503 49.4911 31.9319 49.5653 32.012L49.4458 32.1234C49.5223 32.2062 49.5981 32.2875 49.6732 32.3672L49.7917 32.2548C49.8689 32.3366 49.945 32.4169 50.0205 32.4954L49.9029 32.6089C49.981 32.6907 50.0585 32.7705 50.1346 32.8484L50.2512 32.7338C50.3299 32.8146 50.4073 32.8931 50.4838 32.97L50.3685 33.0855C50.4483 33.166 50.527 33.2442 50.6044 33.3201L50.7187 33.2032C50.7994 33.283 50.8788 33.3602 50.9565 33.4351L50.8435 33.5532C50.9259 33.6324 51.0062 33.7092 51.085 33.7835L51.1969 33.664C51.2792 33.7419 51.3599 33.8167 51.4383 33.889L51.3283 34.0098C51.4132 34.0879 51.4959 34.1628 51.5759 34.2344L51.6846 34.1124C51.7701 34.1889 51.8528 34.2618 51.9321 34.3308L51.8254 34.4544C51.9136 34.5313 51.9981 34.6032 52.0785 34.6705L52.1829 34.5449C52.2737 34.6204 52.3586 34.69 52.4379 34.7535L52.3361 34.8817C52.4328 34.9588 52.5209 35.0274 52.6005 35.0866L52.6981 34.9554C52.7436 34.9896 52.7862 35.0205 52.8255 35.0484L52.9617 35.1374L52.873 35.2747Z" fill="#FFE249"/>
<path d="M75.262 23.5893L75.2318 23.5192L75.1541 23.4953C75.0905 23.4757 75.0258 23.458 74.9605 23.4425L74.9165 23.5995C74.7953 23.5707 74.6709 23.5493 74.5433 23.5359L74.5633 23.3747C74.4969 23.3678 74.4298 23.3628 74.3623 23.36C74.3001 23.3574 74.2382 23.3566 74.1767 23.3576L74.1799 23.5197C74.0622 23.5216 73.9462 23.5303 73.8327 23.5456L73.8074 23.3851C73.6837 23.4016 73.5624 23.4254 73.4443 23.4559L73.4918 23.6121C73.379 23.6411 73.2693 23.6767 73.1632 23.7184L73.0943 23.5691C72.9797 23.6139 72.869 23.6654 72.7629 23.723L72.8518 23.8629C72.7513 23.9173 72.655 23.9776 72.5633 24.0431L72.4557 23.915C72.3577 23.9852 72.2649 24.0611 72.1777 24.1422L72.3025 24.2563C72.2206 24.3325 72.1443 24.4136 72.074 24.4991L71.9342 24.401C71.8593 24.4919 71.7908 24.5875 71.7296 24.6873L71.8822 24.7674C71.8252 24.8603 71.7746 24.957 71.731 25.057L71.568 24.9965C71.5219 25.1021 71.4833 25.2112 71.4527 25.3232L71.6231 25.3628C71.595 25.4657 71.5743 25.5713 71.5613 25.6791L71.3866 25.661C71.3796 25.7175 71.3747 25.7747 71.3719 25.8322C71.369 25.8898 71.3683 25.9471 71.3698 26.004L71.5455 26.0006C71.5479 26.1091 71.5581 26.216 71.576 26.3208L71.4024 26.346C71.4218 26.4601 71.4495 26.5719 71.485 26.6809L71.6534 26.6343C71.6868 26.7376 71.7275 26.8382 71.7753 26.9354L71.6154 27.0024C71.6667 27.1069 71.7254 27.2079 71.7911 27.3047L71.9401 27.2188C72.0016 27.3097 72.0698 27.3969 72.1436 27.4796L72.0083 27.5829C72.087 27.6709 72.1721 27.7543 72.2628 27.8323L72.3826 27.7137C72.4673 27.7867 72.5573 27.8548 72.6522 27.9175L72.5499 28.0493C72.6501 28.1156 72.7551 28.1761 72.8648 28.2304L72.9477 28.0874C73.0497 28.1378 73.1554 28.1824 73.2647 28.2208L73.2022 28.3724C73.3167 28.4127 73.4352 28.4465 73.5568 28.4734L73.5976 28.3156C73.7093 28.3403 73.8239 28.3587 73.9409 28.3705L73.9219 28.5317C73.9831 28.5378 74.0446 28.5422 74.1068 28.5448C74.1641 28.5472 74.221 28.5481 74.2779 28.5474L74.2755 28.3853C74.3841 28.384 74.4913 28.3769 74.5964 28.3643L74.6192 28.5251C74.7334 28.5114 74.8459 28.4915 74.9555 28.4659L74.9123 28.3086C75.017 28.2841 75.1197 28.2541 75.2191 28.2188L75.282 28.3702C75.3892 28.3322 75.4932 28.2885 75.5941 28.2394L75.5119 28.096C75.6071 28.0496 75.6988 27.9981 75.7867 27.9419L75.8869 28.0753C75.981 28.0152 76.071 27.95 76.1564 27.8802L76.0401 27.7587C76.1202 27.693 76.1965 27.6229 76.2675 27.5489L76.3989 27.6565C76.4369 27.6169 76.4734 27.5764 76.5089 27.5348L76.5595 27.4751L76.5423 27.4009C76.5296 27.3466 76.517 27.2922 76.5036 27.2378L76.3321 27.2733C76.3061 27.1661 76.2791 27.0587 76.2506 26.9514L76.4214 26.913C76.3929 26.8051 76.3634 26.6972 76.3328 26.5898L76.1627 26.6308C76.1325 26.524 76.1016 26.4174 76.0696 26.3115L76.239 26.2681C76.2067 26.1607 76.1736 26.0539 76.1399 25.948L75.9712 25.9936C75.9375 25.887 75.903 25.7813 75.8682 25.6768L76.0362 25.6292C76.0007 25.5221 75.9645 25.4162 75.9283 25.3119L75.761 25.3614C75.7241 25.2549 75.6869 25.1499 75.6496 25.047L75.8162 24.9956C75.7776 24.8885 75.7389 24.7834 75.7002 24.6808L75.5344 24.734C75.4943 24.6273 75.4542 24.5233 75.4149 24.4224L75.5804 24.3674C75.5382 24.2597 75.4968 24.1554 75.4563 24.0552L75.2915 24.1119C75.2479 24.004 75.2051 23.9007 75.1639 23.8027L75.3277 23.744C75.3052 23.6908 75.2834 23.6392 75.262 23.5893Z" fill="#C4FAFF"/>
<path d="M64.4055 46.6669L64.3621 46.6803L64.3318 46.7144C64.3034 46.7465 64.2681 46.7844 64.2267 46.8277L64.3442 46.941C64.2805 47.0074 64.2038 47.0847 64.1167 47.1702L64.0025 47.0533C63.9323 47.122 63.855 47.1967 63.7714 47.2756L63.8834 47.3948C63.8086 47.4652 63.7297 47.5389 63.6468 47.6152L63.5365 47.4943C63.4601 47.5644 63.3805 47.6368 63.2985 47.7104L63.4072 47.8326C63.3286 47.903 63.2476 47.9747 63.1647 48.047L63.0574 47.9236C62.9781 47.9933 62.8968 48.0634 62.8143 48.1338L62.92 48.2586C62.8387 48.328 62.7562 48.3974 62.6726 48.4668L62.5685 48.3404C62.4863 48.4089 62.4034 48.4766 62.3202 48.5438L62.4223 48.6715C62.3381 48.7392 62.2533 48.8064 62.1687 48.8722L62.0689 48.7428C61.9837 48.8093 61.8985 48.8742 61.8143 48.937L61.9119 49.0683C61.8238 49.1338 61.7367 49.1973 61.6508 49.2582L61.5565 49.1243C61.4671 49.1878 61.3796 49.2481 61.2941 49.3044L61.3835 49.4413C61.2899 49.5032 61.1982 49.5608 61.1101 49.6132L61.0268 49.4724C60.9309 49.5297 60.8398 49.5798 60.7547 49.6223L60.8271 49.769C60.7201 49.8224 60.6199 49.865 60.5292 49.8948L60.4786 49.7389C60.4293 49.7553 60.3856 49.7661 60.3474 49.7726C60.3118 49.7785 60.2687 49.7808 60.2178 49.7779L60.2093 49.9416C60.1118 49.9364 60.0015 49.9164 59.8804 49.8846L59.9218 49.7261C59.8282 49.7016 59.7263 49.6688 59.617 49.6289L59.5612 49.7828C59.462 49.7468 59.3579 49.7055 59.2502 49.6597L59.3135 49.509C59.2166 49.4678 59.1161 49.4229 59.0123 49.3751L58.9441 49.5241C58.8459 49.4786 58.745 49.4308 58.6422 49.381L58.7134 49.2333C58.6155 49.1859 58.5156 49.1368 58.4144 49.086L58.3417 49.2327C58.2431 49.1833 58.1432 49.1328 58.0427 49.0817L58.1165 48.9357C58.0261 48.8895 57.935 48.843 57.8437 48.7965L57.8188 48.7838L57.7448 48.9298C57.6459 48.8791 57.5463 48.8283 57.4468 48.7779L57.5202 48.6318C57.4204 48.5811 57.3202 48.5303 57.2207 48.4806L57.1479 48.6273C57.0474 48.5772 56.9472 48.5277 56.848 48.4796L56.9188 48.3319C56.8163 48.2825 56.7145 48.234 56.614 48.1872L56.5454 48.3358C56.442 48.2877 56.3402 48.2419 56.24 48.1983L56.3046 48.048C56.1982 48.0019 56.0934 47.9583 55.9906 47.9184L55.9313 48.0706C55.8232 48.0284 55.7178 47.9901 55.6163 47.9563L55.6672 47.8008C55.5527 47.7628 55.4411 47.7304 55.334 47.7049L55.2962 47.864C55.1787 47.8362 55.0681 47.8172 54.9659 47.8087L54.979 47.6456C54.8442 47.6345 54.7143 47.6397 54.5955 47.6689L54.6344 47.828C54.5185 47.8561 54.4229 47.9108 54.3521 47.9963L54.2267 47.8915C54.1807 47.9465 54.1442 48.0097 54.1158 48.0801C54.0955 48.1309 54.0756 48.1823 54.0567 48.2337L54.2101 48.2903C54.1735 48.3899 54.1396 48.4914 54.1086 48.5942L53.9526 48.5467C53.921 48.6512 53.8919 48.7569 53.8658 48.864L54.0241 48.9033C53.999 49.0064 53.9761 49.1106 53.9555 49.2163L53.7953 49.1852C53.7748 49.2916 53.7565 49.3997 53.7405 49.5084L53.9017 49.5323C53.8864 49.6374 53.873 49.7435 53.8616 49.8506L53.6994 49.8335C53.6879 49.9413 53.6788 50.0496 53.6713 50.1593L53.8341 50.1701C53.827 50.2759 53.8217 50.3826 53.8185 50.49L53.6553 50.4848C53.6517 50.5925 53.6501 50.7012 53.6501 50.8103H53.8133C53.8133 50.9164 53.8149 51.0234 53.8182 51.1308L53.655 51.1354C53.6579 51.2432 53.6628 51.3515 53.669 51.4602L53.8319 51.4511C53.8377 51.5572 53.8452 51.6639 53.8541 51.771L53.6915 51.7844C53.7 51.8918 53.7101 51.9995 53.7216 52.1076L53.8841 52.0906C53.8952 52.1963 53.9076 52.3024 53.921 52.4088L53.7591 52.4295C53.7728 52.5362 53.7875 52.6429 53.8031 52.75L53.9647 52.7261C53.9803 52.8315 53.9967 52.937 54.0146 53.0427L53.8534 53.0696C53.8713 53.1757 53.8899 53.2821 53.9095 53.3882L54.0701 53.3584C54.0893 53.4632 54.1096 53.5683 54.1308 53.6734L53.9709 53.7058C53.9921 53.8112 54.0143 53.9167 54.0375 54.0221L54.1967 53.9871C54.2196 54.0912 54.2431 54.1953 54.2672 54.2998L54.1083 54.3368C54.1328 54.4416 54.1579 54.5463 54.1837 54.6508L54.3419 54.6112C54.3674 54.715 54.3938 54.8184 54.4209 54.9219L54.263 54.9635C54.2901 55.0676 54.3178 55.1714 54.3462 55.2749L54.5035 55.2317C54.5316 55.3348 54.5603 55.4376 54.5896 55.5404L54.433 55.5853C54.4624 55.6888 54.4924 55.7922 54.5231 55.895L54.6794 55.8482C54.7097 55.9507 54.7407 56.0532 54.7721 56.155L54.6164 56.2032C54.6481 56.306 54.68 56.4085 54.7123 56.5106L54.868 56.4609C54.9003 56.5627 54.9333 56.6645 54.9662 56.7654L54.8116 56.8168C54.8452 56.9189 54.8788 57.0211 54.9131 57.1223L55.0677 57.0699C55.102 57.1714 55.1366 57.2726 55.1715 57.3731L55.0172 57.4268C55.0527 57.529 55.088 57.6301 55.1239 57.7307L55.2776 57.6756C55.3135 57.7768 55.3494 57.8773 55.3856 57.9772L55.2322 58.0332C55.2691 58.1344 55.306 58.2352 55.3428 58.3348L55.4956 58.2778C55.5331 58.3787 55.5703 58.4788 55.6078 58.5777L55.4551 58.6357C55.4933 58.7372 55.5315 58.8374 55.5697 58.9366L55.7217 58.8777C55.7606 58.9788 55.7991 59.0784 55.8373 59.1769L55.6855 59.2365C55.7247 59.3377 55.7638 59.4373 55.8027 59.5358L55.9544 59.4756C55.9942 59.5764 56.0337 59.6756 56.0726 59.7735L55.9211 59.8344C55.941 59.8839 55.9606 59.9333 55.9802 59.9821C56.0011 60.0335 56.0223 60.0853 56.0442 60.137L56.1943 60.0731C56.2367 60.174 56.2814 60.2748 56.3284 60.3767L56.1803 60.4454C56.2269 60.5463 56.2756 60.6475 56.3258 60.7486L56.472 60.6756C56.5206 60.7735 56.5712 60.8718 56.6238 60.9703L56.4798 61.0476C56.5321 61.1455 56.5859 61.2437 56.6411 61.3416L56.7833 61.2611C56.8372 61.3567 56.8927 61.4523 56.9495 61.5479L56.8095 61.6317C56.8662 61.7274 56.9243 61.8226 56.9841 61.9179L57.1221 61.8308C57.1805 61.9241 57.2399 62.0171 57.3006 62.1101L57.1642 62.1998C57.2249 62.2932 57.2869 62.3858 57.3499 62.4782L57.4847 62.3858C57.5467 62.4769 57.61 62.5679 57.6739 62.6579L57.5411 62.7529C57.6054 62.8439 57.6707 62.9343 57.7369 63.024L57.8681 62.9267C57.9337 63.0155 58 63.1039 58.0669 63.1916L57.9376 63.2915C58.0052 63.3799 58.0737 63.468 58.1426 63.5551L58.2705 63.4533C58.339 63.54 58.4086 63.6262 58.4784 63.7113L58.3524 63.8154C58.4232 63.9015 58.4947 63.987 58.5665 64.0718L58.6908 63.9654C58.7623 64.0499 58.8348 64.1334 58.9075 64.2159L58.7852 64.3242C58.8589 64.4084 58.9333 64.4916 59.0081 64.5734L59.1285 64.4628C59.2035 64.5449 59.2786 64.6258 59.354 64.7054L59.2355 64.8184C59.3129 64.8999 59.3902 64.9801 59.4679 65.059L59.5841 64.9441C59.6621 65.0233 59.7404 65.1016 59.8184 65.1779L59.7045 65.2951C59.7851 65.374 59.866 65.451 59.9463 65.5266L60.0579 65.4068C60.1392 65.4834 60.2208 65.5577 60.302 65.6304L60.1934 65.7525C60.2779 65.8282 60.3621 65.9015 60.4459 65.9726L60.5514 65.8478C60.6372 65.9205 60.7224 65.9909 60.8069 66.0587L60.7051 66.1867C60.7945 66.2584 60.8833 66.3272 60.971 66.3933L61.0689 66.262C61.1593 66.3301 61.2491 66.3946 61.3375 66.4562L61.2448 66.5908C61.3401 66.6566 61.4345 66.7188 61.5271 66.7771L61.6136 66.6382C61.7102 66.6988 61.8049 66.7548 61.8979 66.8059L61.8195 66.9493C61.924 67.0069 62.0264 67.0587 62.127 67.1045L62.1945 66.9555C62.2999 67.0037 62.4021 67.0443 62.501 67.0773L62.4491 67.2329C62.5062 67.2519 62.5623 67.2686 62.6178 67.283C62.6687 67.2961 62.7193 67.3088 62.7695 67.3213L62.8084 67.1621C62.9095 67.187 63.0097 67.2103 63.1086 67.2316L63.0743 67.3917C63.1781 67.4139 63.2809 67.4342 63.3824 67.4526L63.4111 67.2915C63.5139 67.3098 63.6154 67.3259 63.7153 67.3396L63.6931 67.5017C63.7992 67.5164 63.9039 67.5282 64.0074 67.5371L64.0214 67.374C64.1255 67.3832 64.2281 67.3891 64.3288 67.3917L64.3246 67.5554C64.4326 67.5583 64.5393 67.5577 64.6441 67.5531L64.6372 67.3894C64.7413 67.3848 64.8438 67.3763 64.9443 67.3635L64.9646 67.5259C65.0729 67.5122 65.179 67.4938 65.2834 67.4703L65.2478 67.3105C65.3487 67.2879 65.4475 67.26 65.5441 67.227L65.5967 67.3822C65.6998 67.3471 65.8007 67.3062 65.8995 67.2594L65.8298 67.1114C65.9221 67.0675 66.0121 67.0181 66.0999 66.9631L66.1864 67.1019C66.2778 67.0446 66.3665 66.9817 66.453 66.9126L66.3512 66.7846C66.4299 66.7217 66.5069 66.6533 66.5816 66.5793L66.6962 66.6959C66.7712 66.6215 66.8443 66.542 66.9151 66.4572L66.7901 66.3521C66.8541 66.2751 66.9168 66.1933 66.9778 66.1068L67.1113 66.2011C67.1416 66.1576 67.1716 66.1134 67.201 66.0678C67.232 66.0197 67.2614 65.9716 67.2888 65.9231L67.1468 65.8426C67.1997 65.7486 67.2454 65.654 67.2846 65.5577L67.4357 65.6199C67.4784 65.5145 67.514 65.4077 67.5427 65.2997L67.3848 65.2578C67.4118 65.1556 67.4324 65.0521 67.4471 64.9474L67.6087 64.97C67.6241 64.8603 67.6331 64.7493 67.637 64.6373L67.4738 64.6317C67.4774 64.5276 67.4761 64.4222 67.4703 64.3151L67.6334 64.3066C67.6276 64.1985 67.6178 64.0895 67.6041 63.9791L67.4422 63.9991C67.4295 63.8963 67.4135 63.7922 67.3949 63.6864L67.5554 63.6576C67.5368 63.5528 67.5156 63.4474 67.4924 63.3403L67.3329 63.3757C67.3107 63.2738 67.2865 63.171 67.2604 63.0666L67.4187 63.0269C67.3932 62.9248 67.3661 62.8216 67.3382 62.7175L67.1808 62.7604C67.1534 62.6599 67.1253 62.5581 67.0963 62.4552L67.2533 62.4104C67.2246 62.3099 67.1955 62.2077 67.1658 62.1049L67.0091 62.1504C66.9974 62.1095 66.9853 62.0685 66.9735 62.0276C66.9563 61.9674 66.9386 61.9068 66.921 61.8456L67.078 61.8C67.0489 61.6998 67.0202 61.5987 66.9912 61.4965L66.8342 61.541C66.8058 61.4405 66.7777 61.3387 66.7497 61.2359L66.9073 61.1926C66.8799 61.0924 66.8531 60.9913 66.8267 60.8888L66.6687 60.9297C66.6426 60.8282 66.6172 60.7257 66.5924 60.6222L66.751 60.5839C66.7268 60.4831 66.7033 60.3813 66.6808 60.2781L66.5216 60.3131C66.499 60.211 66.4775 60.1075 66.4573 60.0031L66.6175 59.9716C66.5976 59.8701 66.5787 59.7673 66.5614 59.6638L66.4005 59.6913C66.3829 59.5879 66.3665 59.4838 66.3515 59.378L66.5131 59.3551C66.4987 59.2529 66.4857 59.1498 66.4739 59.0453L66.3117 59.0637C66.3 58.9599 66.2899 58.8547 66.281 58.7483L66.4436 58.7349C66.4354 58.6324 66.4285 58.5286 66.4233 58.4242L66.2602 58.4324C66.2553 58.3276 66.2517 58.2221 66.2497 58.1154L66.4129 58.1128C66.4119 58.0607 66.4116 58.0087 66.4116 57.9563C66.4116 57.9022 66.4116 57.8476 66.4116 57.7925L66.2484 57.7922C66.2487 57.6832 66.2491 57.5722 66.2497 57.4592L66.4129 57.4602C66.4132 57.3508 66.4139 57.2395 66.4148 57.1269L66.2517 57.1259C66.2523 57.0168 66.253 56.9065 66.254 56.7948L66.4171 56.7962L66.4197 56.4641L66.2566 56.4628C66.2566 56.4484 66.2566 56.434 66.257 56.4193C66.2576 56.3237 66.2582 56.2271 66.2592 56.1301L66.4223 56.1315C66.423 56.0214 66.424 55.9104 66.4246 55.7985L66.2615 55.7975C66.2621 55.6875 66.2631 55.5771 66.2637 55.4658L66.4269 55.4668C66.4276 55.3564 66.4279 55.2454 66.4285 55.1341L66.2654 55.1334C66.2657 55.0228 66.266 54.9121 66.2664 54.8008L66.4296 54.8011C66.4296 54.6904 66.4299 54.5797 66.4296 54.4687H66.2664C66.2664 54.3581 66.266 54.2474 66.2657 54.1364L66.4289 54.1357C66.4285 54.0247 66.4279 53.9137 66.4269 53.8027L66.2637 53.804C66.2631 53.6934 66.2621 53.5824 66.2608 53.4717L66.424 53.47C66.4227 53.3587 66.421 53.2477 66.4194 53.1367L66.2562 53.1393C66.2546 53.0283 66.2523 52.9177 66.25 52.8073L66.4132 52.8037C66.4109 52.6924 66.4083 52.5814 66.4054 52.4707L66.2422 52.475C66.2393 52.3636 66.2357 52.253 66.2321 52.1426L66.3953 52.1371C66.3913 52.0254 66.3875 51.9144 66.3829 51.8041L66.22 51.8106C66.2154 51.6996 66.2105 51.5889 66.205 51.4792L66.3678 51.4714C66.3626 51.3591 66.3565 51.2477 66.3503 51.1371L66.1871 51.1466C66.1805 51.0349 66.1737 50.9242 66.1662 50.8149L66.329 50.8037C66.3212 50.6914 66.3127 50.5804 66.3039 50.4711L66.1414 50.4842C66.1322 50.3725 66.1224 50.2625 66.1123 50.1538L66.2745 50.1381C66.2637 50.0251 66.2523 49.9134 66.2402 49.8041L66.0781 49.8221C66.0653 49.7101 66.0523 49.5997 66.0379 49.4917L66.1998 49.4704C66.1848 49.3571 66.1691 49.2461 66.1521 49.1377L65.9909 49.163C65.9736 49.051 65.9553 48.9416 65.9358 48.8355L66.096 48.806C66.0751 48.6921 66.0529 48.5817 66.0294 48.4747L65.8702 48.5104C65.8454 48.3984 65.8189 48.2907 65.7912 48.1875L65.9485 48.1446C65.9178 48.03 65.8846 47.9203 65.8493 47.8162L65.6949 47.8689C65.6574 47.7582 65.6176 47.6548 65.5748 47.5588L65.724 47.4924C65.6737 47.3791 65.6193 47.2743 65.5602 47.1797L65.4218 47.2668C65.3581 47.1646 65.2896 47.0772 65.2162 47.0058L65.3294 46.8882C65.2315 46.7933 65.122 46.7193 64.9995 46.6731L64.942 46.8264C64.8412 46.7884 64.7333 46.775 64.6171 46.7884L64.5984 46.6256C64.5349 46.6332 64.4705 46.6469 64.4055 46.6669Z" fill="#FFE249"/>
<path d="M64.8774 61.7906C64.8815 61.7206 64.8822 61.6514 64.8791 61.5826L64.7066 61.5924C64.7011 61.4681 64.6824 61.3465 64.6516 61.2292L64.8172 61.1741C64.7827 61.0415 64.7346 60.9144 64.6748 60.7944L64.5244 60.8902C64.4715 60.7839 64.4079 60.6834 64.3353 60.5899L64.4653 60.4609C64.3872 60.36 64.2993 60.267 64.2039 60.1829L64.0978 60.3373C64.0131 60.2631 63.9211 60.1962 63.8233 60.1383L63.9035 59.9651C63.7998 59.9037 63.6902 59.8517 63.5758 59.8099L63.5225 59.996C63.4209 59.9589 63.3147 59.9303 63.2048 59.912L63.2307 59.7184C63.1726 59.7086 63.1142 59.7016 63.0547 59.6965C62.9953 59.6918 62.9362 59.6899 62.8777 59.6907L62.8795 59.8862C62.7685 59.8873 62.6599 59.8987 62.5545 59.9194L62.5248 59.727C62.4062 59.7501 62.2914 59.7845 62.1811 59.8291L62.2392 60.0132C62.1351 60.0551 62.0359 60.1067 61.9429 60.1669L61.8568 59.9972C61.7517 60.0652 61.6535 60.1438 61.5637 60.2314L61.6764 60.3796C61.593 60.4605 61.518 60.5504 61.4523 60.647L61.3151 60.5285C61.2411 60.638 61.1778 60.7561 61.1274 60.882L61.2847 60.9629C61.2397 61.0744 61.2062 61.1916 61.1854 61.314L61.0157 61.2769C61.0043 61.3445 60.9963 61.4133 60.9922 61.4833C60.9877 61.5529 60.987 61.6225 60.9901 61.6909L61.1626 61.6816C61.1682 61.8059 61.1868 61.9271 61.2176 62.0444L61.052 62.0999C61.0866 62.2324 61.1346 62.3595 61.1944 62.4796L61.3452 62.3838C61.3981 62.4897 61.4613 62.5906 61.5339 62.684L61.4039 62.8131C61.4821 62.9139 61.5699 63.007 61.6656 63.091L61.7714 62.9366C61.8561 63.0109 61.9481 63.0774 62.0459 63.1356L61.9657 63.3088C62.0694 63.3698 62.179 63.4222 62.2938 63.464L62.3467 63.2779C62.4484 63.3151 62.5545 63.3432 62.6644 63.362L62.6385 63.5551C62.6966 63.5653 62.755 63.5723 62.8145 63.577C62.8739 63.5817 62.9331 63.5837 62.9915 63.5833L62.9898 63.3878C63.1007 63.3866 63.2093 63.3753 63.3147 63.3546L63.3445 63.5469C63.463 63.5235 63.5778 63.4895 63.6881 63.4449L63.63 63.2607C63.7341 63.2189 63.8333 63.1673 63.9263 63.1071L64.0124 63.2768C64.1175 63.2083 64.2157 63.1301 64.3056 63.0426L64.1929 62.8944C64.2762 62.8131 64.3512 62.7235 64.4169 62.6266L64.5541 62.7454C64.6281 62.6359 64.6914 62.5175 64.7422 62.392L64.5846 62.311C64.6295 62.1996 64.663 62.0823 64.6838 61.9599L64.8535 61.9967C64.8649 61.9294 64.8729 61.8606 64.8774 61.7906Z" fill="#FFAB49"/>
<path d="M64.8748 55.405C64.8818 55.2883 64.8829 55.173 64.8777 55.0583L64.5902 55.0746C64.581 54.8674 64.5499 54.6647 64.4986 54.4692L64.7746 54.3774C64.717 54.1565 64.6369 53.9447 64.5372 53.7446L64.2865 53.9043C64.1984 53.727 64.0924 53.5595 63.9714 53.4038L64.188 53.1888C64.0578 53.0206 63.9114 52.8656 63.7524 52.7254L63.5755 52.9829C63.4343 52.859 63.2811 52.7476 63.118 52.6512L63.2517 52.3625C63.0788 52.2602 62.8962 52.1735 62.7054 52.1038L62.6167 52.414C62.4473 52.3521 62.2704 52.3045 62.0872 52.2739L62.1304 51.9513C62.0336 51.935 61.9362 51.9233 61.8371 51.9148C61.738 51.907 61.6395 51.9037 61.5421 51.905L61.545 52.2309C61.36 52.2328 61.1791 52.2517 61.0033 52.2862L60.9538 51.9656C60.7562 52.0041 60.5649 52.0614 60.3811 52.1357L60.4779 52.4426C60.3044 52.5124 60.139 52.5984 59.984 52.6987L59.8406 52.4159C59.6654 52.5293 59.5018 52.6603 59.352 52.8063L59.5398 53.0532C59.4009 53.1881 59.2759 53.338 59.1664 53.4989L58.9377 53.3015C58.8144 53.484 58.7089 53.6808 58.6248 53.8906L58.887 54.0255C58.8121 54.2112 58.7562 54.4067 58.7216 54.6106L58.4387 54.5487C58.4197 54.6615 58.4064 54.7762 58.3995 54.8928C58.392 55.0088 58.3909 55.1248 58.396 55.2388L58.6836 55.2232C58.6928 55.4304 58.7239 55.6324 58.7752 55.8279L58.4992 55.9204C58.5568 56.1413 58.6369 56.3531 58.7366 56.5532L58.9878 56.3935C59.076 56.5701 59.1814 56.7382 59.3024 56.894L59.0858 57.109C59.216 57.2772 59.3623 57.4322 59.5219 57.5723L59.6983 57.3149C59.8394 57.4388 59.9927 57.5495 60.1558 57.6466L60.0221 57.9353C60.1949 58.037 60.3776 58.1243 60.5689 58.194L60.657 57.8838C60.8265 57.9457 61.0034 57.9927 61.1866 58.0239L61.1434 58.3458C61.2402 58.3628 61.3376 58.3745 61.4367 58.3823C61.5358 58.3902 61.6343 58.3934 61.7317 58.3928L61.7288 58.0669C61.9137 58.065 62.0947 58.0461 62.2704 58.0116L62.32 58.3322C62.5176 58.2931 62.7089 58.2364 62.8927 58.1621L62.7959 57.8552C62.9693 57.7854 63.1347 57.6994 63.2897 57.5991L63.4332 57.8819C63.6084 57.7678 63.772 57.6375 63.9218 57.4915L63.734 57.2446C63.8728 57.109 63.9979 56.9598 64.1073 56.7982L64.3361 56.9963C64.4594 56.8138 64.5648 56.6164 64.6495 56.4072L64.3868 56.2723C64.4617 56.0866 64.5176 55.8911 64.5522 55.6872L64.8351 55.7484C64.8541 55.6363 64.8674 55.5216 64.8748 55.405Z" fill="#FFAB49"/>
<path d="M42.1726 51.9048C43.9643 51.9048 45.4167 50.7428 45.4167 49.3095C45.4167 47.8762 43.9643 46.7143 42.1726 46.7143C40.381 46.7143 38.9286 46.7143 38.9286 49.3095C38.9286 50.7428 40.381 51.9048 42.1726 51.9048Z" fill="#C4FAFF"/>
<path d="M72.6667 49.3095C73.3833 49.3095 73.9643 48.7286 73.9643 48.0119C73.9643 47.2953 73.5599 46.7143 72.8432 46.7143C72.1266 46.7143 71.369 47.2953 71.369 48.0119C71.369 48.7286 71.95 49.3095 72.6667 49.3095Z" fill="#C4FAFF"/>
<path d="M71.369 49.1894C71.3844 48.9746 71.4487 48.7673 71.556 48.5869C71.6634 48.4065 71.8099 48.2588 71.9819 48.1583C72.1539 48.0577 72.3455 48.0073 72.5383 48.0122C72.7312 48.0171 72.9192 48.0771 73.084 48.1864C73.2488 48.2955 73.3852 48.4503 73.4798 48.636C73.5748 48.8217 73.6247 49.0319 73.6257 49.2467C73.6264 49.4618 73.5777 49.674 73.4841 49.8639C73.3904 50.0535 73.2553 50.2139 73.0912 50.3298L71.9819 50.5551L71.369 49.1894Z" fill="#273B52"/>
<path d="M41.8916 52.2936C41.425 51.9848 41.384 52.4903 41.1226 52.0308C40.8613 51.5713 40.7297 51.0708 40.7404 50.5773C40.751 50.0838 40.9033 49.6137 41.1833 49.2115C41.463 48.8093 41.8609 48.4888 42.339 48.2805C42.817 48.0718 43.3592 47.9823 43.9139 48.0205C44.4683 48.0587 45.0168 48.2232 45.5072 48.4984C45.9974 48.7733 46.4128 49.15 46.7143 49.5921C47.0153 50.034 46.3978 49.8505 46.4333 50.3472L44.4869 51.6448L41.8916 52.2936Z" fill="#273B52"/>
<path d="M53.1986 42.3263C53.2028 42.2564 53.2035 42.1872 53.2003 42.1183L53.0278 42.1281C53.0223 42.0038 53.0036 41.8822 52.9729 41.7649L53.1385 41.7098C53.1039 41.5772 53.0558 41.4501 52.996 41.3301L52.8456 41.4259C52.7927 41.3196 52.7291 41.2191 52.6565 41.1256L52.7865 40.9966C52.7084 40.8957 52.6206 40.8027 52.5252 40.7186L52.419 40.8731C52.3343 40.7988 52.2424 40.7319 52.1445 40.674L52.2247 40.5008C52.121 40.4395 52.0114 40.3875 51.897 40.3456L51.8437 40.5317C51.7421 40.4946 51.636 40.466 51.526 40.4477L51.552 40.2541C51.4939 40.2443 51.4354 40.2373 51.376 40.2322C51.3165 40.2275 51.2574 40.2256 51.199 40.2264L51.2007 40.4219C51.0897 40.423 50.9812 40.4344 50.8757 40.4551L50.846 40.2627C50.7274 40.2858 50.6126 40.3202 50.5023 40.3648L50.5604 40.5489C50.4564 40.5908 50.3571 40.6424 50.2641 40.7026L50.1781 40.5329C50.073 40.6009 49.9748 40.6795 49.8849 40.7671L49.9976 40.9153C49.9143 40.9962 49.8393 41.0861 49.7736 41.1827L49.6363 41.0642C49.5623 41.1737 49.4991 41.2918 49.4486 41.4177L49.6059 41.4986C49.5609 41.6101 49.5274 41.7274 49.5067 41.8497L49.3369 41.8126C49.3255 41.8802 49.3176 41.949 49.3134 42.019C49.3089 42.0886 49.3082 42.1582 49.3113 42.2266L49.4839 42.2173C49.4894 42.3416 49.5081 42.4628 49.5388 42.5801L49.3732 42.6356C49.4078 42.7682 49.4558 42.8952 49.5157 43.0153L49.6664 42.9195C49.7193 43.0254 49.7826 43.1263 49.8552 43.2197L49.7252 43.3488C49.8033 43.4496 49.8911 43.5427 49.9869 43.6268L50.0927 43.4723C50.1774 43.5466 50.2693 43.6131 50.3672 43.6713L50.287 43.8445C50.3907 43.9055 50.5003 43.9579 50.615 43.9998L50.6679 43.8136C50.7696 43.8508 50.8757 43.8789 50.9857 43.8977L50.9597 44.0909C51.0178 44.101 51.0762 44.1081 51.1357 44.1127C51.1952 44.1174 51.2543 44.1194 51.3127 44.119L51.311 43.9235C51.422 43.9223 51.5305 43.911 51.636 43.8903L51.6657 44.0826C51.7843 44.0592 51.8991 44.0252 52.0093 43.9806L51.9513 43.7964C52.0553 43.7546 52.1545 43.703 52.2475 43.6428L52.3336 43.8125C52.4387 43.7441 52.5369 43.6659 52.6268 43.5783L52.5141 43.4301C52.5974 43.3488 52.6724 43.2592 52.7381 43.1623L52.8754 43.2811C52.9494 43.1716 53.0126 43.0532 53.0634 42.9277L52.9058 42.8467C52.9507 42.7353 52.9843 42.618 53.005 42.4956L53.1748 42.5324C53.1862 42.4651 53.1941 42.3963 53.1986 42.3263Z" fill="#FFFDFA"/>
<path d="M70.0678 37.1358C70.0719 37.0659 70.0726 36.9967 70.0695 36.9278L69.897 36.9376C69.8914 36.8133 69.8728 36.6917 69.842 36.5744L70.0076 36.5193C69.973 36.3867 69.925 36.2597 69.8652 36.1396L69.7148 36.2354C69.6619 36.1291 69.5983 36.0286 69.5257 35.9351L69.6557 35.8061C69.5775 35.7052 69.4897 35.6122 69.3943 35.5281L69.2882 35.6826C69.2035 35.6083 69.1115 35.5414 69.0137 35.4836L69.0939 35.3103C68.9902 35.249 68.8806 35.197 68.7661 35.1551L68.7129 35.3412C68.6112 35.3041 68.5051 35.2756 68.3952 35.2572L68.4211 35.0636C68.363 35.0539 68.3046 35.0468 68.2451 35.0417C68.1857 35.037 68.1265 35.0351 68.0681 35.0359L68.0698 35.2314C67.9589 35.2325 67.8503 35.2439 67.7449 35.2646L67.7151 35.0722C67.5966 35.0953 67.4818 35.1297 67.3715 35.1743L67.4296 35.3584C67.3255 35.4003 67.2263 35.4519 67.1333 35.5121L67.0472 35.3424C66.9421 35.4104 66.8439 35.489 66.754 35.5766L66.8667 35.7248C66.7834 35.8057 66.7084 35.8956 66.6427 35.9922L66.5055 35.8738C66.4315 35.9832 66.3682 36.1013 66.3177 36.2272L66.475 36.3081C66.4301 36.4196 66.3966 36.5369 66.3758 36.6592L66.2061 36.6221C66.1947 36.6897 66.1867 36.7586 66.1826 36.8285C66.1781 36.8981 66.1774 36.9677 66.1805 37.0362L66.353 37.0268C66.3585 37.1511 66.3772 37.2723 66.408 37.3896L66.2424 37.4451C66.2769 37.5777 66.325 37.7047 66.3848 37.8248L66.5355 37.729C66.5884 37.8349 66.6517 37.9358 66.7243 38.0292L66.5943 38.1583C66.6724 38.2591 66.7603 38.3522 66.856 38.4363L66.9618 38.2818C67.0465 38.3561 67.1385 38.4226 67.2363 38.4808L67.1561 38.654C67.2598 38.715 67.3694 38.7674 67.4842 38.8093L67.5371 38.6232C67.6387 38.6603 67.7449 38.6884 67.8548 38.7072L67.8289 38.9004C67.887 38.9105 67.9454 38.9176 68.0049 38.9223C68.0643 38.9269 68.1234 38.9289 68.1819 38.9285L68.1801 38.733C68.2911 38.7318 68.3997 38.7205 68.5051 38.6998L68.5348 38.8922C68.6534 38.8687 68.7682 38.8347 68.8785 38.7901L68.8204 38.606C68.9245 38.5641 69.0237 38.5125 69.1167 38.4523L69.2028 38.622C69.3079 38.5536 69.4061 38.4754 69.4959 38.3878L69.3832 38.2396C69.4666 38.1583 69.5416 38.0687 69.6073 37.9718L69.7445 38.0906C69.8185 37.9812 69.8818 37.8627 69.9326 37.7372L69.7749 37.6563C69.8199 37.5448 69.8534 37.4275 69.8742 37.3051L70.0439 37.3419C70.0553 37.2747 70.0633 37.2058 70.0678 37.1358Z" fill="#FFFDFA"/>
<path d="M73.9594 32.6454C73.9649 32.5521 73.9659 32.4599 73.9617 32.3681L73.7317 32.3811C73.7243 32.2154 73.6994 32.0532 73.6584 31.8968L73.8792 31.8233C73.8331 31.6466 73.769 31.4772 73.6893 31.3171L73.4888 31.4449C73.4182 31.3031 73.3334 31.1691 73.2366 31.0445L73.4099 30.8725C73.3058 30.738 73.1887 30.6139 73.0615 30.5018L72.9199 30.7077C72.807 30.6087 72.6844 30.5195 72.5539 30.4424L72.6609 30.2114C72.5226 30.1296 72.3765 30.0603 72.2239 30.0045L72.1529 30.2526C72.0174 30.2031 71.8759 30.165 71.7293 30.1405L71.7638 29.8825C71.6864 29.8694 71.6085 29.8601 71.5292 29.8533C71.4499 29.847 71.3711 29.8444 71.2932 29.8455L71.2955 30.1061C71.1475 30.1077 71.0028 30.1228 70.8622 30.1504L70.8226 29.894C70.6645 29.9247 70.5114 29.9706 70.3644 30.03L70.4418 30.2756C70.3031 30.3313 70.1708 30.4001 70.0468 30.4804L69.932 30.2542C69.7919 30.3449 69.6609 30.4497 69.5411 30.5664L69.6914 30.764C69.5803 30.8719 69.4802 30.9918 69.3927 31.1206L69.2097 30.9626C69.111 31.1086 69.0267 31.2661 68.9594 31.4339L69.1691 31.5418C69.1092 31.6904 69.0645 31.8468 69.0368 32.01L68.8105 31.9604C68.7953 32.0506 68.7847 32.1424 68.7791 32.2357C68.7731 32.3285 68.7722 32.4213 68.7764 32.5125L69.0064 32.5C69.0138 32.6658 69.0386 32.8274 69.0797 32.9838L68.8589 33.0578C68.905 33.2345 68.969 33.404 69.0488 33.564L69.2498 33.4363C69.3203 33.5775 69.4046 33.712 69.5014 33.8366L69.3281 34.0087C69.4323 34.1432 69.5494 34.2672 69.6771 34.3793L69.8181 34.1734C69.9311 34.2725 70.0537 34.3611 70.1841 34.4388L70.0772 34.6697C70.2155 34.751 70.3616 34.8209 70.5146 34.8767L70.5852 34.6285C70.7207 34.678 70.8622 34.7156 71.0088 34.7406L70.9742 34.9981C71.0517 35.0117 71.1296 35.0211 71.2089 35.0273C71.2881 35.0336 71.367 35.0362 71.4449 35.0357L71.4426 34.775C71.5905 34.7734 71.7353 34.7583 71.8759 34.7307L71.9155 34.9872C72.0736 34.9559 72.2267 34.9105 72.3737 34.8511L72.2963 34.6056C72.435 34.5498 72.5673 34.481 72.6913 34.4007L72.8061 34.6269C72.9462 34.5357 73.0771 34.4315 73.197 34.3147L73.0467 34.1171C73.1578 34.0087 73.2578 33.8893 73.3454 33.76L73.5284 33.9185C73.6271 33.7725 73.7114 33.6146 73.7792 33.4472L73.569 33.3393C73.6289 33.1907 73.6736 33.0343 73.7013 32.8712L73.9276 32.9202C73.9428 32.8305 73.9534 32.7388 73.9594 32.6454Z" fill="#FFFDFA"/>
<path d="M66.1748 42.3263C66.179 42.2564 66.1796 42.1872 66.1765 42.1183L66.004 42.1281C65.9985 42.0038 65.9798 41.8822 65.9491 41.7649L66.1147 41.7098C66.0801 41.5772 66.032 41.4501 65.9722 41.3301L65.8218 41.4259C65.7689 41.3196 65.7053 41.2191 65.6327 41.1256L65.7627 40.9966C65.6846 40.8957 65.5968 40.8027 65.5013 40.7186L65.3952 40.8731C65.3105 40.7988 65.2185 40.7319 65.1207 40.674L65.2009 40.5008C65.0972 40.4395 64.9876 40.3875 64.8732 40.3456L64.8199 40.5317C64.7183 40.4946 64.6122 40.466 64.5022 40.4477L64.5281 40.2541C64.4701 40.2443 64.4116 40.2373 64.3522 40.2322C64.2927 40.2275 64.2336 40.2256 64.1752 40.2264L64.1769 40.4219C64.0659 40.423 63.9574 40.4344 63.8519 40.4551L63.8222 40.2627C63.7036 40.2858 63.5888 40.3202 63.4785 40.3648L63.5366 40.5489C63.4326 40.5908 63.3333 40.6424 63.2403 40.7026L63.1542 40.5329C63.0491 40.6009 62.951 40.6795 62.8611 40.7671L62.9738 40.9153C62.8905 40.9962 62.8154 41.0861 62.7498 41.1827L62.6125 41.0642C62.5385 41.1737 62.4753 41.2918 62.4248 41.4177L62.5821 41.4986C62.5371 41.6101 62.5036 41.7274 62.4829 41.8497L62.3131 41.8126C62.3017 41.8802 62.2937 41.949 62.2896 42.019C62.2851 42.0886 62.2844 42.1582 62.2875 42.2266L62.46 42.2173C62.4656 42.3416 62.4842 42.4628 62.515 42.5801L62.3494 42.6356C62.384 42.7682 62.432 42.8952 62.4918 43.0153L62.6426 42.9195C62.6955 43.0254 62.7587 43.1263 62.8313 43.2197L62.7014 43.3488C62.7795 43.4496 62.8673 43.5427 62.9631 43.6268L63.0688 43.4723C63.1536 43.5466 63.2455 43.6131 63.3434 43.6713L63.2631 43.8445C63.3669 43.9055 63.4765 43.9579 63.5912 43.9998L63.6441 43.8136C63.7458 43.8508 63.8519 43.8789 63.9618 43.8977L63.9359 44.0909C63.994 44.101 64.0524 44.1081 64.1119 44.1127C64.1714 44.1174 64.2305 44.1194 64.2889 44.119L64.2872 43.9235C64.3981 43.9223 64.5067 43.911 64.6121 43.8903L64.6419 44.0826C64.7605 44.0592 64.8752 44.0252 64.9855 43.9806L64.9274 43.7964C65.0315 43.7546 65.1307 43.703 65.2237 43.6428L65.3098 43.8125C65.4149 43.7441 65.5131 43.6659 65.603 43.5783L65.4903 43.4301C65.5736 43.3488 65.6486 43.2592 65.7143 43.1623L65.8516 43.2811C65.9255 43.1716 65.9888 43.0532 66.0396 42.9277L65.882 42.8467C65.9269 42.7353 65.9605 42.618 65.9812 42.4956L66.151 42.5324C66.1624 42.4651 66.1703 42.3963 66.1748 42.3263Z" fill="#FFFDFA"/>
<path d="M48.007 37.8359C48.0126 37.7426 48.0135 37.6503 48.0093 37.5586L47.7793 37.5716C47.7719 37.4058 47.747 37.2437 47.706 37.0873L47.9268 37.0138C47.8807 36.8371 47.8166 36.6676 47.7369 36.5076L47.5364 36.6353C47.4659 36.4935 47.381 36.3595 47.2842 36.2349L47.4576 36.0629C47.3534 35.9284 47.2363 35.8043 47.1091 35.6923L46.9676 35.8982C46.8546 35.7991 46.732 35.71 46.6016 35.6328L46.7085 35.4019C46.5702 35.32 46.4241 35.2507 46.2715 35.1949L46.2005 35.4431C46.065 35.3936 45.9235 35.3555 45.7769 35.331L45.8115 35.0729C45.734 35.0599 45.6561 35.0505 45.5768 35.0437C45.4975 35.0375 45.4187 35.0349 45.3408 35.0359L45.3431 35.2966C45.1952 35.2981 45.0504 35.3133 44.9098 35.3409L44.8702 35.0844C44.7121 35.1152 44.559 35.161 44.412 35.2205L44.4894 35.466C44.3507 35.5218 44.2184 35.5906 44.0944 35.6709L43.9796 35.4446C43.8395 35.5354 43.7086 35.6401 43.5887 35.7569L43.739 35.9545C43.6279 36.0624 43.5279 36.1823 43.4403 36.3111L43.2573 36.1531C43.1586 36.2991 43.0743 36.4565 43.007 36.6244L43.2167 36.7323C43.1568 36.8809 43.1121 37.0373 43.0844 37.2004L42.8581 37.1509C42.8429 37.2411 42.8323 37.3328 42.8267 37.4261C42.8207 37.5189 42.8198 37.6117 42.824 37.703L43.054 37.6905C43.0614 37.8562 43.0863 38.0178 43.1273 38.1742L42.9065 38.2483C42.9526 38.425 43.0167 38.5944 43.0964 38.7545L43.2974 38.6267C43.3679 38.768 43.4523 38.9025 43.5491 39.0271L43.3757 39.1991C43.4799 39.3336 43.597 39.4577 43.7247 39.5698L43.8657 39.3639C43.9787 39.4629 44.1013 39.5515 44.2318 39.6292L44.1248 39.8602C44.2631 39.9415 44.4092 40.0113 44.5623 40.0671L44.6328 39.819C44.7683 39.8685 44.9098 39.906 45.0564 39.931L45.0218 40.1886C45.0993 40.2021 45.1772 40.2115 45.2565 40.2178C45.3358 40.224 45.4146 40.2266 45.4925 40.2261L45.4902 39.9655C45.6381 39.9639 45.7829 39.9488 45.9235 39.9211L45.9631 40.1776C46.1212 40.1464 46.2743 40.101 46.4213 40.0416L46.3439 39.796C46.4826 39.7403 46.6149 39.6714 46.7389 39.5912L46.8537 39.8174C46.9938 39.7262 47.1247 39.6219 47.2446 39.5051L47.0943 39.3076C47.2054 39.1991 47.3054 39.0797 47.393 38.9505L47.576 39.1089C47.6747 38.963 47.759 38.805 47.8268 38.6377L47.6166 38.5298C47.6765 38.3812 47.7212 38.2248 47.7489 38.0616L47.9752 38.1106C47.9904 38.021 48.001 37.9292 48.007 37.8359Z" fill="#FFFDFA"/>
<path d="M38.9224 26.8574C38.9293 26.7407 38.9304 26.6254 38.9252 26.5107L38.6377 26.527C38.6285 26.3198 38.5974 26.1171 38.5461 25.9216L38.8221 25.8298C38.7645 25.6088 38.6844 25.3971 38.5847 25.197L38.3341 25.3567C38.2459 25.1794 38.1399 25.0119 38.0189 24.8562L38.2355 24.6412C38.1053 24.473 37.959 24.3179 37.7999 24.1778L37.623 24.4352C37.4819 24.3114 37.3286 24.2 37.1655 24.1036L37.2992 23.8149C37.1263 23.7126 36.9437 23.6259 36.753 23.5562L36.6642 23.8664C36.4948 23.8045 36.3179 23.7569 36.1347 23.7263L36.1779 23.4037C36.0811 23.3874 35.9837 23.3757 35.8846 23.3672C35.7855 23.3594 35.687 23.3561 35.5896 23.3574L35.5925 23.6832C35.4075 23.6852 35.2266 23.7041 35.0509 23.7386L35.0013 23.418C34.8037 23.4565 34.6124 23.5138 34.4286 23.5881L34.5254 23.895C34.3519 23.9648 34.1866 24.0508 34.0316 24.1511L33.8881 23.8683C33.7129 23.9817 33.5493 24.1127 33.3995 24.2587L33.5873 24.5056C33.4485 24.6405 33.3234 24.7904 33.2139 24.9513L32.9852 24.7539C32.8619 24.9364 32.7564 25.1332 32.6723 25.343L32.9345 25.4779C32.8596 25.6636 32.8037 25.8591 32.7691 26.063L32.4862 26.0011C32.4672 26.1139 32.4539 26.2286 32.447 26.3452C32.4395 26.4612 32.4384 26.5772 32.4436 26.6912L32.7311 26.6756C32.7403 26.8828 32.7714 27.0848 32.8227 27.2803L32.5467 27.3728C32.6043 27.5937 32.6844 27.8055 32.7841 28.0056L33.0353 27.8459C33.1235 28.0225 33.2289 28.1906 33.3499 28.3464L33.1333 28.5614C33.2635 28.7296 33.4098 28.8846 33.5695 29.0247L33.7458 28.7673C33.8869 28.8912 34.0402 29.0019 34.2033 29.099L34.0696 29.3877C34.2425 29.4894 34.4251 29.5767 34.6164 29.6464L34.7046 29.3362C34.874 29.3981 35.0509 29.445 35.2341 29.4763L35.1909 29.7982C35.2877 29.8152 35.3851 29.8269 35.4842 29.8347C35.5833 29.8426 35.6818 29.8458 35.7792 29.8452L35.7763 29.5193C35.9613 29.5174 36.1422 29.4985 36.3179 29.4639L36.3675 29.7846C36.5651 29.7455 36.7564 29.6888 36.9402 29.6145L36.8434 29.3076C37.0169 29.2378 37.1822 29.1518 37.3372 29.0515L37.4807 29.3343C37.6559 29.2202 37.8195 29.0899 37.9693 28.9439L37.7815 28.697C37.9204 28.5614 38.0454 28.4122 38.1549 28.2506L38.3836 28.4487C38.5069 28.2662 38.6124 28.0688 38.6971 27.8596L38.4343 27.7247C38.5092 27.539 38.5651 27.3435 38.5997 27.1395L38.8826 27.2008C38.9016 27.0887 38.9149 26.974 38.9224 26.8574Z" fill="#FFFDFA"/>
<path d="M42.8165 32.6454C42.8221 32.5521 42.823 32.4599 42.8189 32.3681L42.5888 32.3811C42.5815 32.2154 42.5566 32.0532 42.5155 31.8968L42.7363 31.8233C42.6902 31.6466 42.6262 31.4772 42.5464 31.3171L42.3459 31.4449C42.2754 31.3031 42.1906 31.1691 42.0938 31.0445L42.2671 30.8725C42.1629 30.738 42.0458 30.6139 41.9186 30.5018L41.7771 30.7077C41.6641 30.6087 41.5415 30.5195 41.4111 30.4424L41.518 30.2114C41.3797 30.1296 41.2336 30.0603 41.081 30.0045L41.01 30.2526C40.8745 30.2031 40.733 30.165 40.5864 30.1405L40.621 29.8825C40.5435 29.8694 40.4656 29.8601 40.3864 29.8533C40.3071 29.847 40.2282 29.8444 40.1503 29.8455L40.1526 30.1061C40.0047 30.1077 39.8599 30.1228 39.7193 30.1504L39.6797 29.894C39.5216 29.9247 39.3686 29.9706 39.2215 30.03L39.299 30.2756C39.1602 30.3313 39.0279 30.4001 38.9039 30.4804L38.7891 30.2542C38.649 30.3449 38.5181 30.4497 38.3982 30.5664L38.5485 30.764C38.4374 30.8719 38.3374 30.9918 38.2498 31.1206L38.0668 30.9626C37.9682 31.1086 37.8838 31.2661 37.8165 31.4339L38.0262 31.5418C37.9663 31.6904 37.9216 31.8468 37.8939 32.01L37.6676 31.9604C37.6524 32.0506 37.6418 32.1424 37.6363 32.2357C37.6303 32.3285 37.6293 32.4213 37.6335 32.5125L37.8635 32.5C37.8709 32.6658 37.8958 32.8274 37.9368 32.9838L37.716 33.0578C37.7621 33.2345 37.8262 33.404 37.9059 33.564L38.1069 33.4363C38.1774 33.5775 38.2618 33.712 38.3586 33.8366L38.1853 34.0087C38.2894 34.1432 38.4065 34.2672 38.5342 34.3793L38.6753 34.1734C38.7882 34.2725 38.9108 34.3611 39.0413 34.4388L38.9343 34.6697C39.0726 34.751 39.2187 34.8209 39.3718 34.8767L39.4423 34.6285C39.5778 34.678 39.7193 34.7156 39.8659 34.7406L39.8314 34.9981C39.9088 35.0117 39.9867 35.0211 40.066 35.0273C40.1453 35.0336 40.2241 35.0362 40.302 35.0357L40.2997 34.775C40.4477 34.7734 40.5924 34.7583 40.733 34.7307L40.7726 34.9872C40.9307 34.9559 41.0838 34.9105 41.2308 34.8511L41.1534 34.6056C41.2921 34.5498 41.4244 34.481 41.5484 34.4007L41.6632 34.6269C41.8034 34.5357 41.9343 34.4315 42.0541 34.3147L41.9038 34.1171C42.0149 34.0087 42.115 33.8893 42.2025 33.76L42.3855 33.9185C42.4842 33.7725 42.5685 33.6146 42.6363 33.4472L42.4261 33.3393C42.486 33.1907 42.5307 33.0343 42.5584 32.8712L42.7847 32.9202C42.7999 32.8305 42.8106 32.7388 42.8165 32.6454Z" fill="#FFFDFA"/>
</svg>
