<svg xmlns="http://www.w3.org/2000/svg" width="810" viewBox="0 0 810 810" height="810" version="1.0"><defs><clipPath id="a"><path d="M 86 178 L 729 178 L 729 499 L 86 499 Z M 86 178"/></clipPath><clipPath id="b"><path d="M 415.953125 810 L -0.0234375 415.929688 L 394.042969 -0.0507812 L 810.023438 394.019531 Z M 415.953125 810"/></clipPath><clipPath id="c"><path d="M 415.953125 810 L -0.0234375 415.929688 L 394.042969 -0.0507812 L 810.023438 394.019531 Z M 415.953125 810"/></clipPath><clipPath id="d"><path d="M 223 210 L 599 210 L 599 335 L 223 335 Z M 223 210"/></clipPath><clipPath id="e"><path d="M 415.953125 810 L -0.0234375 415.929688 L 394.042969 -0.0507812 L 810.023438 394.019531 Z M 415.953125 810"/></clipPath><clipPath id="f"><path d="M 415.953125 810 L -0.0234375 415.929688 L 394.042969 -0.0507812 L 810.023438 394.019531 Z M 415.953125 810"/></clipPath><clipPath id="g"><path d="M 346 202 L 442 202 L 442 294 L 346 294 Z M 346 202"/></clipPath><clipPath id="h"><path d="M 346.070312 203.042969 L 441.316406 202.253906 L 442.070312 293 L 346.824219 293.789062 Z M 346.070312 203.042969"/></clipPath><clipPath id="i"><path d="M 346.070312 203.042969 L 441.316406 202.253906 L 442.070312 293 L 346.824219 293.789062 Z M 346.070312 203.042969"/></clipPath><clipPath id="j"><path d="M 346.070312 203.042969 L 441.316406 202.253906 L 442.070312 293 L 346.824219 293.789062 Z M 346.070312 203.042969"/></clipPath><clipPath id="k"><path d="M 346 202 L 424 202 L 424 294 L 346 294 Z M 346 202"/></clipPath><clipPath id="l"><path d="M 346.070312 203.042969 L 441.316406 202.253906 L 442.070312 293 L 346.824219 293.789062 Z M 346.070312 203.042969"/></clipPath><clipPath id="m"><path d="M 346.070312 203.042969 L 441.316406 202.253906 L 442.070312 293 L 346.824219 293.789062 Z M 346.070312 203.042969"/></clipPath><clipPath id="n"><path d="M 346.070312 203.042969 L 441.316406 202.253906 L 442.070312 293 L 346.824219 293.789062 Z M 346.070312 203.042969"/></clipPath><clipPath id="o"><path d="M 50 504 L 119 504 L 119 729 L 50 729 Z M 50 504"/></clipPath><clipPath id="p"><path d="M -17.199219 673.613281 L 85.335938 499.863281 L 178.992188 555.132812 L 76.457031 728.882812 Z M -17.199219 673.613281"/></clipPath><clipPath id="q"><path d="M -17.199219 673.613281 L 85.335938 499.863281 L 178.992188 555.132812 L 76.457031 728.882812 Z M -17.199219 673.613281"/></clipPath><clipPath id="r"><path d="M 717 484 L 779 484 L 779 690 L 717 690 Z M 717 484"/></clipPath><clipPath id="s"><path d="M 752.542969 480.714844 L 831.164062 647.625 L 740.925781 690.128906 L 662.304688 523.21875 Z M 752.542969 480.714844"/></clipPath><clipPath id="t"><path d="M 831.28125 647.867188 L 752.660156 480.957031 L 662.417969 523.464844 L 741.039062 690.375 Z M 831.28125 647.867188"/></clipPath></defs><g clip-path="url(#a)"><g clip-path="url(#b)"><g clip-path="url(#c)"><path fill="#CE703C" d="M 86.574219 498.476562 C 260.285156 277.40625 531.453125 259.203125 728.011719 481.125 C 718.101562 308.441406 572.964844 173.679688 398.871094 178.398438 C 224.773438 183.097656 87.121094 325.5 86.574219 498.476562 Z M 86.574219 498.476562"/></g></g></g><g clip-path="url(#d)"><g clip-path="url(#e)"><g clip-path="url(#f)"><path fill="#BB5516" d="M 242.132812 325.492188 C 251.980469 325.214844 259.746094 317.015625 259.5 307.15625 C 259.222656 297.308594 251.027344 289.542969 241.179688 289.796875 C 231.308594 290.074219 223.53125 298.261719 223.808594 308.132812 C 224.066406 317.980469 232.273438 325.757812 242.132812 325.492188 Z M 572.738281 334.390625 C 587.539062 334 599.179688 321.710938 598.78125 306.902344 C 598.402344 292.109375 586.089844 280.445312 571.300781 280.867188 C 556.5 281.28125 544.859375 293.570312 545.257812 308.359375 C 545.636719 323.148438 557.949219 334.8125 572.738281 334.390625 Z M 394.28125 210.765625 C 418.929688 210.097656 439.4375 229.527344 440.09375 254.164062 C 440.761719 278.8125 421.320312 299.335938 396.703125 299.96875 C 372.042969 300.644531 351.535156 281.21875 350.890625 256.566406 C 350.203125 231.941406 369.640625 211.421875 394.28125 210.765625 Z M 394.28125 210.765625"/></g></g></g><g clip-path="url(#g)"><g clip-path="url(#h)"><g clip-path="url(#i)"><g clip-path="url(#j)"><path fill="#F5C116" d="M 393.683594 202.644531 L 409.277344 233.273438 L 441.589844 236.914062 L 419.003906 262.433594 L 423.863281 293.152344 L 394.328125 280.710938 L 365.003906 293.640625 L 369.355469 262.84375 L 346.347656 237.703125 L 378.59375 233.527344 L 393.683594 202.644531"/></g></g></g></g><g clip-path="url(#k)"><g clip-path="url(#l)"><g clip-path="url(#m)"><g clip-path="url(#n)"><path fill="#D2A113" d="M 423.863281 293.152344 L 394.328125 280.710938 L 365.003906 293.640625 L 369.355469 262.84375 L 346.347656 237.703125 L 378.59375 233.527344 L 393.683594 202.644531 C 393.683594 202.644531 387.941406 225.066406 386.222656 229.527344 C 384.667969 233.558594 384.21875 236.78125 380.207031 237.972656 C 378.90625 238.359375 377.46875 238.445312 375.988281 238.460938 C 375.484375 238.464844 374.980469 238.457031 374.472656 238.453125 C 373.964844 238.449219 373.457031 238.445312 372.949219 238.449219 C 369.644531 238.476562 366.46875 238.875 364.511719 242.070312 C 361.828125 246.445312 364.550781 250.078125 368.054688 252.84375 C 371.578125 255.621094 375.671875 257.382812 376.78125 261.058594 C 377.988281 265.058594 372.90625 271.273438 374.777344 275.070312 C 376.21875 278 379.179688 279.859375 382.421875 279.832031 C 384.027344 279.820312 385.699219 279.34375 387.292969 278.300781 C 389.445312 276.886719 391.285156 275.539062 393.613281 275.519531 C 395.292969 275.503906 397.222656 276.183594 399.699219 278.027344 C 402.910156 280.417969 406 282.535156 408.121094 283.386719 C 409.492188 283.9375 410.652344 284.171875 411.65625 284.164062 C 413.949219 284.144531 415.421875 282.835938 416.746094 281.035156 C 419.34375 277.5 420.070312 271.382812 419.777344 267.324219 L 423.863281 293.152344"/></g></g></g></g><g clip-path="url(#o)"><g clip-path="url(#p)"><g clip-path="url(#q)"><path fill="#CE703C" d="M 95.78125 506.027344 C 99.132812 509.691406 102.925781 513.070312 105.683594 517.121094 C 108.988281 521.945312 111.621094 527.289062 114.242188 532.578125 C 120.777344 545.746094 119.417969 558.867188 112.960938 571.582031 C 110.0625 577.265625 106.144531 582.4375 102.800781 587.949219 C 102.28125 588.832031 102.117188 589.875 102.3125 590.859375 C 107.996094 613.429688 104.738281 635.242188 96.007812 656.292969 C 91.34375 667.511719 85.113281 678.074219 80.039062 689.140625 C 77.539062 694.691406 75.515625 700.4375 74.042969 706.324219 C 72.429688 712.539062 73.945312 718.773438 75.699219 724.832031 C 75.988281 725.730469 76.726562 726.488281 77.285156 727.316406 L 75.75 728.144531 C 74.226562 727.25 72.53125 726.566406 71.207031 725.417969 C 64.855469 719.890625 62.382812 712.726562 62.941406 704.519531 C 63.546875 695.703125 66.804688 687.628906 70.667969 679.773438 C 76.070312 668.765625 82.140625 658.015625 86.875 646.75 C 93.3125 631.285156 95.285156 614.96875 93.203125 598.265625 C 93.070312 597.179688 92.804688 596.160156 92.597656 595.121094 C 92.5625 594.875 92.367188 594.667969 92.425781 594.792969 C 74.367188 595.824219 61.785156 587.574219 53.175781 572.589844 C 48.429688 564.261719 52.121094 556.308594 56.550781 550.886719 C 58.53125 548.453125 61.4375 547.703125 64.546875 547.757812 C 73 547.953125 79.457031 552.21875 85.296875 557.765625 C 90.988281 563.179688 94.59375 569.964844 97.757812 577.035156 C 98.167969 577.960938 98.613281 578.90625 99.222656 580.269531 C 103.375 575.238281 106.089844 569.945312 108.53125 564.492188 C 114.082031 552.15625 111.609375 540.519531 105.734375 529.15625 C 101.554688 521.027344 97.300781 512.949219 90.160156 506.90625 C 89.792969 506.601562 89.457031 505.625 89.628906 505.410156 C 90.070312 504.894531 90.707031 504.585938 91.363281 504.558594 C 92.378906 504.613281 93.390625 504.980469 94.429688 505.230469 Z M 90.683594 586.78125 C 87.132812 575.96875 82.609375 566.496094 74.300781 559.492188 C 71.742188 557.34375 68.367188 556.035156 65.214844 554.816406 C 64.167969 554.425781 61.9375 555.117188 61.234375 556.074219 C 58.160156 560.285156 56.457031 564.941406 59.230469 570.046875 C 64.8125 580.277344 73.476562 585.984375 84.972656 587.425781 C 86.664062 587.648438 88.429688 587.050781 90.683594 586.78125 Z M 90.683594 586.78125"/></g></g></g><g clip-path="url(#r)"><g clip-path="url(#s)"><g clip-path="url(#t)"><path fill="#CE703C" d="M 742.59375 485.699219 C 739.21875 488.757812 735.46875 491.519531 732.597656 494.976562 C 729.167969 499.097656 726.304688 503.742188 723.457031 508.34375 C 716.359375 519.792969 716.472656 531.859375 721.269531 543.988281 C 723.425781 549.410156 726.554688 554.453125 729.132812 559.753906 C 729.53125 560.601562 729.589844 561.566406 729.328125 562.445312 C 722.199219 582.535156 723.292969 602.683594 729.449219 622.59375 C 732.738281 633.207031 737.515625 643.351562 741.191406 653.859375 C 743 659.128906 744.351562 664.535156 745.183594 670.023438 C 746.125 675.820312 744.207031 681.371094 742.082031 686.746094 C 741.738281 687.542969 741 688.167969 740.417969 688.878906 L 741.75 689.761719 C 743.214844 689.070312 744.820312 688.59375 746.132812 687.65625 C 752.40625 683.152344 755.277344 676.832031 755.472656 669.308594 C 755.683594 661.222656 753.402344 653.59375 750.554688 646.113281 C 746.570312 635.628906 741.957031 625.324219 738.605469 614.664062 C 734.0625 600.035156 733.664062 585 737.003906 569.957031 C 737.21875 568.980469 737.546875 568.070312 737.828125 567.144531 C 737.878906 566.921875 738.078125 566.75 738.011719 566.859375 C 754.40625 569.3125 766.601562 562.851562 775.746094 549.917969 C 780.796875 542.730469 778.113281 535.171875 774.539062 529.863281 C 772.9375 527.476562 770.351562 526.550781 767.507812 526.339844 C 759.777344 525.808594 753.515625 529.15625 747.707031 533.71875 C 742.046875 538.175781 738.171875 544.054688 734.675781 550.230469 C 734.21875 551.039062 733.734375 551.867188 733.0625 553.058594 C 729.703125 548.121094 727.683594 543.074219 725.921875 537.902344 C 721.921875 526.195312 725.179688 515.796875 731.515625 505.9375 C 736.03125 498.882812 740.609375 491.878906 747.648438 486.972656 C 748.007812 486.722656 748.402344 485.863281 748.261719 485.652344 C 747.902344 485.144531 747.347656 484.808594 746.753906 484.734375 C 745.820312 484.695312 744.863281 484.945312 743.894531 485.085938 Z M 740.292969 559.707031 C 744.464844 550.148438 749.410156 541.898438 757.59375 536.214844 C 760.117188 534.472656 763.308594 533.5625 766.292969 532.714844 C 767.28125 532.449219 769.257812 533.265625 769.8125 534.195312 C 772.257812 538.289062 773.410156 542.675781 770.4375 547.09375 C 764.464844 555.949219 756.066406 560.421875 745.449219 560.773438 C 743.886719 560.832031 742.324219 560.136719 740.292969 559.707031 Z M 740.292969 559.707031"/></g></g></g></svg>