<svg xmlns="http://www.w3.org/2000/svg" width="810" viewBox="0 0 810 810" height="810" version="1.0"><defs><clipPath id="a"><path d="M 330 256.933594 L 421 256.933594 L 421 345 L 330 345 Z M 330 256.933594"/></clipPath><clipPath id="b"><path d="M 101 499 L 708 499 L 708 629.683594 L 101 629.683594 Z M 101 499"/></clipPath></defs><path fill="#F2F2F2" d="M 188.636719 464.992188 C 185.285156 476.34375 183.238281 487.878906 180.628906 499.230469 C 178.953125 499.230469 177.464844 499.230469 175.789062 499.417969 C 169.644531 500.347656 163.5 501.652344 157.355469 502.210938 C 143.953125 503.511719 130.917969 506.675781 118.070312 510.957031 C 113.605469 512.445312 109.507812 514.679688 105.597656 517.46875 C 101.128906 520.820312 100.382812 526.773438 104.109375 529.007812 C 110.996094 533.289062 118.445312 536.078125 127.007812 535.707031 C 135.574219 535.519531 144.324219 535.707031 152.886719 535.519531 C 155.867188 535.519531 159.03125 536.636719 162.011719 536.265625 C 166.292969 535.519531 170.574219 535.894531 174.859375 535.707031 C 176.160156 537.007812 177.835938 536.453125 179.511719 536.636719 C 186.960938 537.195312 194.59375 537.382812 202.042969 538.3125 C 213.585938 539.613281 225.3125 540.359375 237.042969 541.105469 C 248.214844 541.664062 259.386719 541.664062 270.558594 542.59375 C 284.148438 543.710938 297.925781 544.082031 311.515625 545.382812 C 320.269531 546.128906 329.203125 545.941406 337.957031 546.316406 C 354.898438 546.871094 371.839844 547.988281 388.597656 548.546875 C 412.429688 549.292969 436.261719 549.105469 459.90625 548.917969 C 478.710938 548.917969 497.328125 547.804688 515.949219 546.6875 C 520.042969 546.5 524.324219 546.6875 528.421875 546.316406 C 540.894531 545.570312 553.558594 544.082031 566.03125 543.335938 C 578.320312 542.59375 590.792969 541.289062 603.082031 540.359375 C 611.832031 539.613281 620.582031 538.871094 629.332031 537.753906 C 633.242188 537.195312 637.339844 537.941406 641.0625 536.078125 C 641.808594 536.078125 642.554688 536.078125 643.296875 536.078125 C 654.65625 535.335938 666.011719 533.660156 677.554688 533.847656 C 677.929688 533.847656 678.300781 533.660156 678.671875 533.660156 C 685.933594 532.914062 693.007812 530.867188 700.457031 532.542969 C 703.433594 533.289062 705.484375 531.242188 707.160156 528.820312 C 708.835938 526.402344 707.71875 524.355469 706.226562 522.496094 C 704.738281 520.820312 703.0625 518.957031 700.828125 518.214844 C 697.664062 516.910156 694.5 515.421875 691.332031 514.492188 C 682.023438 511.515625 672.527344 509.09375 662.660156 507.792969 C 653.722656 506.675781 645.160156 504.628906 636.035156 504.628906 C 634.734375 502.582031 634.734375 500.164062 634.175781 497.929688 C 631.753906 488.4375 629.519531 478.761719 627.285156 469.269531 C 645.53125 471.316406 663.59375 473.921875 681.835938 476.527344 C 701.757812 479.507812 721.679688 482.484375 741.230469 487.507812 C 754.261719 490.859375 767.296875 494.765625 779.210938 501.09375 C 783.496094 503.328125 787.777344 505.933594 791.3125 509.28125 C 801.742188 518.957031 800.808594 529.566406 789.078125 537.566406 C 782.75 541.847656 775.675781 544.453125 768.414062 546.6875 C 751.285156 552.269531 733.410156 555.0625 715.722656 557.667969 C 709.019531 558.597656 702.316406 559.714844 695.429688 560.828125 C 694.3125 560.828125 693.195312 560.828125 692.265625 560.828125 C 682.953125 561.386719 674.390625 565.480469 664.894531 565.667969 C 661.730469 565.667969 658.378906 565.855469 655.214844 566.597656 C 649.441406 567.902344 643.484375 567.714844 637.527344 568.273438 C 632.683594 568.644531 627.84375 569.019531 623.191406 569.949219 C 609.226562 572.554688 595.074219 572.925781 581.113281 574.972656 C 571.804688 576.277344 562.121094 576.460938 552.625 577.019531 C 537.171875 577.765625 521.71875 578.507812 506.453125 579.253906 C 485.414062 580.183594 464.375 578.324219 443.335938 580.554688 C 439.796875 580.929688 436.632812 579.441406 433.097656 579.625 C 414.105469 579.996094 395.300781 577.765625 376.496094 578.507812 C 368.304688 578.695312 359.925781 578.507812 351.546875 578.507812 C 350.058594 578.507812 348.566406 578.507812 347.265625 578.324219 C 337.398438 576.648438 327.15625 577.765625 317.289062 576.460938 C 314.308594 576.089844 311.332031 577.578125 308.167969 577.578125 C 298.484375 577.019531 288.804688 577.949219 279.121094 576.648438 C 270.371094 575.53125 261.621094 575.902344 252.683594 575.53125 C 232.015625 574.785156 211.351562 575.53125 190.683594 573.296875 C 182.863281 572.554688 175.042969 571.25 167.039062 571.996094 C 166.109375 571.996094 165.175781 571.808594 164.433594 571.625 C 155.308594 569.203125 146 569.203125 136.875 567.53125 C 131.476562 566.597656 125.890625 566.785156 120.304688 565.667969 C 118.070312 565.109375 115.652344 563.0625 113.230469 565.296875 C 103.921875 562.503906 94.242188 561.203125 84.746094 558.96875 C 66.3125 554.503906 48.066406 549.851562 31.308594 540.730469 C 25.910156 537.753906 20.882812 534.40625 16.601562 529.9375 C 14.925781 528.261719 13.621094 526.402344 12.320312 524.355469 C 8.410156 517.46875 9.339844 510.210938 14.554688 504.441406 C 19.582031 498.859375 25.910156 495.695312 32.613281 493.089844 C 45.085938 488.253906 57.933594 485.089844 70.96875 482.296875 C 92.378906 477.644531 113.976562 473.921875 135.757812 471.316406 C 153.632812 468.710938 171.132812 466.664062 188.636719 464.992188 Z M 188.636719 464.992188"/><g clip-path="url(#a)"><path fill="#467010" d="M 415.222656 314.4375 C 411.683594 320.765625 411.5 326.722656 415.96875 332.863281 C 417.828125 335.46875 418.945312 338.632812 420.25 341.609375 C 420.808594 342.726562 420.808594 343.84375 419.503906 344.402344 C 418.199219 344.957031 417.640625 344.027344 417.082031 343.097656 C 414.851562 338.445312 412.617188 333.605469 410.195312 329.140625 C 407.589844 324.117188 404.796875 318.90625 401.070312 314.625 C 400.699219 313.882812 400.328125 312.949219 399.769531 312.390625 C 397.535156 309.601562 395.859375 305.878906 393.066406 304.019531 C 390.085938 301.972656 386.175781 304.390625 382.640625 304.390625 C 370.910156 304.949219 361.042969 301.039062 353.222656 292.480469 C 350.058594 288.945312 347.078125 285.40625 343.914062 282.058594 C 340.5625 278.523438 337.023438 275.171875 332.183594 273.5 C 330.878906 272.941406 329.949219 272.195312 330.320312 270.707031 C 330.507812 269.402344 331.4375 268.472656 332.929688 268.289062 C 336.09375 267.730469 339.445312 267.730469 342.609375 268.289062 C 351.546875 270.148438 360.671875 271.636719 369.421875 274.054688 C 382.824219 277.964844 392.695312 285.78125 396.417969 300.109375 C 396.417969 300.480469 396.605469 300.855469 396.789062 301.039062 C 397.164062 301.972656 397.347656 303.273438 398.835938 303.085938 C 400.328125 302.714844 399.953125 301.414062 399.769531 300.480469 C 398.835938 293.410156 399.023438 286.523438 399.394531 279.453125 C 399.769531 272.753906 401.445312 266.242188 403.121094 259.914062 C 403.304688 259.167969 403.679688 258.609375 403.863281 257.867188 C 404.238281 257.121094 404.796875 256.933594 405.726562 256.933594 C 406.65625 256.933594 407.03125 257.492188 407.214844 258.238281 C 407.402344 259.914062 407.773438 261.402344 407.773438 263.078125 C 407.773438 268.101562 408.890625 272.753906 411.125 277.21875 C 416.710938 288.945312 418.015625 301.414062 415.222656 314.4375 Z M 399.023438 303.460938 C 398.28125 303.644531 398.464844 304.203125 398.652344 304.574219 C 398.835938 304.949219 399.023438 305.132812 399.210938 305.320312 C 399.582031 304.949219 400.140625 304.761719 399.953125 304.203125 C 399.769531 303.832031 399.582031 303.460938 399.023438 303.460938 Z M 399.023438 303.460938"/></g><path fill="#D2A113" d="M 627.101562 469.269531 C 629.332031 478.761719 631.566406 488.4375 633.988281 497.929688 C 634.546875 500.164062 634.359375 502.582031 635.851562 504.628906 C 637.527344 515.050781 639.386719 525.472656 641.0625 536.078125 C 637.339844 537.941406 633.242188 537.195312 629.332031 537.753906 C 620.582031 539.058594 611.832031 539.613281 603.082031 540.359375 C 590.792969 541.476562 578.320312 542.777344 566.03125 543.335938 C 553.371094 544.082031 540.894531 545.570312 528.421875 546.316406 C 524.324219 546.5 520.042969 546.316406 515.949219 546.6875 C 497.328125 547.804688 478.523438 548.917969 459.90625 548.917969 C 436.074219 548.917969 412.242188 549.292969 388.597656 548.546875 C 371.65625 547.988281 354.898438 546.871094 337.957031 546.316406 C 329.203125 545.941406 320.269531 546.128906 311.515625 545.382812 C 297.925781 544.265625 284.148438 543.894531 270.558594 542.59375 C 259.386719 541.664062 248.214844 541.664062 237.042969 541.105469 C 225.3125 540.546875 213.769531 539.613281 202.042969 538.3125 C 194.59375 537.566406 186.960938 537.195312 179.511719 536.636719 C 178.023438 536.453125 176.160156 537.011719 174.859375 535.707031 C 175.601562 531.054688 176.535156 526.214844 177.277344 521.5625 C 183.050781 521.9375 188.820312 521.003906 194.40625 522.496094 C 196.269531 523.050781 197.015625 521.75 196.082031 519.703125 C 194.222656 515.980469 196.457031 513.191406 198.503906 510.957031 C 200.738281 508.535156 204.273438 509.46875 207.253906 510.398438 C 210.046875 511.328125 210.605469 513.746094 210.605469 516.539062 C 210.605469 517.65625 210.605469 518.773438 210.605469 519.703125 C 210.417969 521.75 211.535156 522.496094 213.398438 522.679688 C 219.914062 523.609375 226.429688 524.542969 232.949219 525.65625 C 233.507812 525.65625 234.066406 525.84375 234.625 525.84375 C 242.070312 525.285156 249.332031 527.148438 256.59375 526.960938 C 273.910156 526.773438 291.222656 527.703125 308.351562 528.449219 C 326.226562 529.195312 344.101562 528.449219 361.789062 529.378906 C 375.566406 530.125 389.527344 529.9375 403.304688 530.308594 C 414.476562 530.683594 425.460938 529.566406 436.261719 526.589844 C 439.054688 525.84375 441.847656 525.285156 444.265625 522.867188 C 447.617188 519.890625 452.273438 518.773438 456.742188 518.398438 C 462.886719 518.027344 469.027344 518.214844 475.171875 518.214844 C 476.105469 518.214844 477.222656 518.027344 477.78125 518.585938 C 481.316406 521.378906 484.855469 520.449219 488.578125 519.332031 C 498.820312 515.792969 509.429688 514.121094 519.113281 509.09375 C 526.1875 505.375 532.332031 500.535156 537.171875 494.023438 C 542.570312 486.949219 547.039062 479.320312 549.832031 470.945312 C 551.324219 466.292969 552.066406 461.640625 552.253906 456.617188 C 552.625 437.261719 550.390625 418.28125 544.621094 399.855469 C 542.011719 391.484375 537.546875 384.039062 533.078125 376.78125 C 527.117188 366.917969 519.859375 358.171875 511.851562 349.609375 C 504.03125 341.238281 494.910156 335.28125 484.855469 330.070312 C 480.015625 327.652344 475.171875 325.234375 470.332031 322.8125 C 469.027344 322.070312 467.167969 321.882812 466.609375 320.023438 C 483.738281 323.371094 500.679688 327.09375 516.691406 334.910156 C 537.917969 345.332031 556.535156 359.472656 572.546875 376.78125 C 586.511719 391.667969 598.613281 407.859375 608.296875 426.097656 C 615.183594 438.9375 620.957031 452.335938 625.609375 466.292969 C 626.167969 467.222656 626.355469 468.339844 627.101562 469.269531 Z M 593.585938 514.679688 C 593.398438 514.304688 593.214844 513.746094 592.839844 513.191406 C 591.351562 510.957031 588.558594 510.585938 586.324219 512.632812 C 583.160156 515.238281 582.042969 519.144531 583.71875 521.003906 C 584.648438 522.121094 585.953125 522.121094 587.257812 521.9375 C 589.863281 521.5625 593.398438 517.65625 593.585938 514.679688 Z M 582.789062 531.425781 C 582.972656 529.195312 582.042969 527.519531 579.996094 526.589844 C 577.945312 525.65625 576.644531 527.148438 575.527344 528.820312 C 574.78125 529.9375 573.851562 531.242188 573.292969 532.542969 C 572.546875 534.21875 573.105469 535.707031 574.597656 536.824219 C 576.085938 537.753906 577.386719 538.3125 579.0625 537.195312 C 581.671875 535.894531 582.414062 533.847656 582.789062 531.425781 Z M 574.039062 522.867188 C 575.527344 522.121094 577.945312 521.191406 578.878906 519.144531 C 579.808594 517.46875 580.925781 515.238281 579.808594 513.191406 C 579.0625 511.699219 577.574219 510.585938 575.898438 512.074219 C 573.851562 513.933594 571.804688 515.421875 570.6875 518.027344 C 569.753906 520.261719 571.058594 522.679688 574.039062 522.867188 Z M 580.179688 435.402344 C 582.601562 434.84375 583.90625 432.796875 585.582031 431.121094 C 587.441406 429.074219 586.699219 426.839844 584.089844 425.910156 C 581.484375 425.167969 576.269531 429.261719 576.644531 431.867188 C 576.828125 433.914062 578.132812 435.027344 580.179688 435.402344 Z M 600.101562 433.167969 C 600.101562 431.308594 598.425781 429.445312 596.9375 429.261719 C 594.515625 429.074219 590.609375 433.167969 590.609375 435.773438 C 590.609375 438.191406 592.46875 438.75 594.332031 438.566406 C 597.125 438.566406 600.101562 435.585938 600.101562 433.167969 Z M 274.28125 498.117188 C 277.257812 498.300781 280.050781 497.371094 282.84375 497 C 284.894531 496.628906 286.570312 495.511719 287.128906 493.464844 C 287.6875 491.230469 285.636719 490.300781 284.335938 489.183594 C 283.03125 488.066406 281.167969 487.507812 279.492188 486.949219 C 277.632812 486.390625 276.515625 485.648438 278.003906 483.042969 C 280.425781 478.574219 279.121094 475.597656 274.46875 473.738281 C 272.234375 472.808594 270 472.25 267.765625 472.0625 C 265.15625 471.875 261.621094 472.0625 260.128906 470.203125 C 257.152344 466.664062 253.429688 465.734375 249.519531 464.433594 C 244.863281 462.945312 240.765625 464.433594 237.042969 467.222656 C 235.183594 468.710938 234.066406 470.574219 235.183594 472.808594 C 236.113281 474.855469 235.367188 476.15625 234.066406 477.644531 C 229.222656 483.414062 231.085938 489.371094 238.347656 491.789062 C 240.023438 492.347656 241.882812 492.53125 243.558594 493.277344 C 251.566406 497.371094 259.945312 498.300781 268.695312 498.117188 C 270.183594 498.117188 272.234375 497.929688 274.28125 498.117188 Z M 366.628906 412.699219 C 363.277344 410.09375 359.738281 412.324219 356.386719 413.257812 C 353.96875 414 351.546875 414.929688 351.175781 417.910156 C 351.175781 418.09375 351.175781 418.28125 351.175781 418.464844 C 352.292969 421.257812 350.242188 421.816406 348.382812 422.5625 C 345.589844 423.675781 342.609375 424.609375 340.191406 426.46875 C 337.023438 428.886719 337.582031 431.867188 341.121094 433.539062 C 342.238281 434.097656 343.542969 434.472656 344.84375 434.097656 C 351.734375 432.796875 358.808594 432.980469 365.324219 430.375 C 367.371094 429.632812 369.421875 428.886719 371.28125 427.957031 C 374.820312 425.910156 374.820312 423.117188 371.28125 421.070312 C 370.722656 420.886719 370.351562 420.515625 369.792969 420.328125 C 368.117188 419.957031 367.1875 419.210938 368.117188 417.351562 C 368.863281 415.675781 368.117188 413.8125 366.628906 412.699219 Z M 347.265625 365.242188 C 349.125 362.453125 347.824219 358.917969 345.03125 359.101562 C 340.933594 359.472656 336.839844 360.589844 333.859375 363.753906 C 332.554688 365.242188 332.554688 367.105469 333.300781 368.777344 C 334.046875 370.269531 335.535156 370.453125 337.023438 370.453125 C 340.375 370.640625 345.589844 367.847656 347.265625 365.242188 Z M 359.925781 487.695312 C 361.414062 486.207031 361.601562 483.972656 360.484375 482.296875 C 359.367188 480.4375 357.503906 480.621094 355.644531 481.554688 C 353.410156 482.667969 351.175781 483.785156 348.941406 485.089844 C 347.265625 486.207031 346.519531 487.878906 347.265625 489.742188 C 348.007812 491.601562 349.5 491.789062 351.359375 491.789062 C 354.710938 491.417969 357.503906 490.113281 359.925781 487.695312 Z M 487.089844 474.480469 C 486.160156 477.085938 488.019531 479.878906 490.625 479.691406 C 494.722656 479.507812 499.378906 475.226562 499.9375 471.316406 C 500.308594 469.085938 499.378906 467.96875 497.144531 467.96875 C 494.164062 467.96875 488.019531 472.0625 487.089844 474.480469 Z M 473.3125 394.832031 C 474.800781 393.53125 474.800781 391.667969 474.242188 389.808594 C 474.054688 388.691406 473.125 387.761719 472.007812 387.945312 C 468.097656 388.691406 464.375 389.808594 461.769531 392.972656 C 460.835938 394.089844 460.09375 395.390625 461.023438 396.878906 C 461.769531 398.367188 463.257812 398.554688 464.746094 398.554688 C 468.097656 398.554688 470.890625 397.066406 473.3125 394.832031 Z M 370.351562 495.511719 C 372.214844 494.207031 372.214844 492.160156 371.46875 490.300781 C 370.722656 488.4375 369.046875 488.253906 367.371094 488.8125 C 364.953125 489.554688 362.53125 490.300781 361.042969 492.347656 C 360.296875 493.464844 358.621094 494.207031 359.554688 495.882812 C 360.296875 497.371094 361.601562 498.300781 363.835938 498.117188 C 365.882812 497.371094 368.304688 497 370.351562 495.511719 Z M 248.960938 400.972656 C 246.726562 400.972656 242.628906 404.136719 242.070312 406.371094 C 241.324219 409.347656 243.558594 411.765625 246.539062 411.210938 C 249.332031 410.652344 252.496094 407.113281 252.683594 404.324219 C 252.871094 402.648438 251.007812 400.972656 248.960938 400.972656 Z M 431.046875 488.4375 C 430.117188 489.742188 429.929688 491.601562 430.863281 492.90625 C 431.792969 494.394531 433.28125 494.953125 434.957031 494.207031 C 436.632812 493.464844 438.308594 493.089844 439.796875 492.160156 C 441.101562 491.417969 442.589844 490.113281 441.847656 488.253906 C 441.101562 486.207031 439.613281 485.089844 436.261719 485.273438 C 434.769531 485.460938 432.539062 486.390625 431.046875 488.4375 Z M 351.917969 367.664062 C 349.683594 368.40625 347.636719 369.335938 345.960938 371.011719 C 345.03125 371.941406 343.542969 372.875 344.472656 374.546875 C 345.402344 376.222656 346.890625 377.339844 348.941406 376.78125 C 351.359375 376.222656 353.59375 375.105469 355.457031 373.429688 C 356.203125 372.6875 356.761719 371.757812 356.761719 370.640625 C 356.574219 368.59375 354.339844 366.917969 351.917969 367.664062 Z M 345.402344 496.070312 C 342.796875 496.628906 340.191406 497.742188 338.140625 499.417969 C 337.023438 500.347656 336.09375 501.652344 336.652344 503.140625 C 337.398438 505 339.074219 505.933594 340.933594 505.558594 C 344.285156 504.816406 346.519531 502.582031 348.382812 499.976562 C 348.753906 499.605469 348.566406 499.046875 348.753906 498.488281 C 348.566406 496.441406 347.078125 495.695312 345.402344 496.070312 Z M 514.273438 477.460938 C 517.4375 476.34375 517.808594 473.550781 515.390625 471.316406 C 513.15625 469.269531 509.058594 469.828125 506.824219 472.433594 C 505.894531 473.550781 504.960938 475.039062 505.707031 476.714844 C 506.453125 478.574219 507.941406 478.761719 509.617188 478.574219 C 511.292969 478.761719 512.78125 478.015625 514.273438 477.460938 Z M 469.402344 379.757812 C 468.097656 380.875 467.914062 382.179688 468.472656 383.667969 C 468.84375 384.96875 470.144531 385.527344 471.449219 385.527344 C 474.242188 385.714844 476.289062 384.226562 478.523438 383.109375 C 479.828125 382.363281 481.316406 381.433594 480.757812 379.757812 C 480.199219 377.898438 478.523438 376.96875 476.476562 377.152344 C 474.988281 377.152344 470.332031 379.015625 469.402344 379.757812 Z M 329.949219 376.96875 C 326.597656 377.152344 323.0625 379.945312 323.433594 381.992188 C 323.804688 384.226562 325.296875 385.527344 327.53125 385.339844 C 331.625 384.96875 334.230469 383.667969 334.046875 380.503906 C 334.046875 378.082031 332.742188 376.96875 329.949219 376.96875 Z M 248.585938 420.140625 C 248.402344 418.09375 246.910156 416.976562 244.304688 417.164062 C 240.953125 417.351562 237.789062 419.957031 237.789062 422.5625 C 237.789062 424.792969 239.09375 425.910156 241.699219 425.722656 C 245.234375 425.539062 248.585938 422.746094 248.585938 420.140625 Z M 248.585938 420.140625"/><g clip-path="url(#b)"><path fill="#B2B2B2" d="M 113.417969 564.925781 C 115.839844 562.691406 118.257812 564.738281 120.492188 565.296875 C 125.890625 566.414062 131.476562 566.226562 137.0625 567.15625 C 146.1875 568.832031 155.679688 568.832031 164.617188 571.25 C 165.550781 571.4375 166.480469 571.625 167.226562 571.625 C 175.230469 571.066406 183.050781 572.183594 190.871094 572.925781 C 211.535156 575.160156 232.203125 574.414062 252.871094 575.160156 C 261.621094 575.53125 270.558594 575.160156 279.308594 576.277344 C 288.988281 577.390625 298.671875 576.648438 308.351562 577.207031 C 311.515625 577.390625 314.308594 575.71875 317.476562 576.089844 C 327.527344 577.578125 337.582031 576.277344 347.449219 577.949219 C 348.941406 578.136719 350.242188 578.136719 351.734375 578.136719 C 360.113281 578.136719 368.304688 578.324219 376.683594 578.136719 C 395.671875 577.578125 414.476562 579.8125 433.28125 579.253906 C 436.632812 579.253906 439.984375 580.554688 443.523438 580.183594 C 464.5625 578.136719 485.601562 579.996094 506.636719 578.882812 C 522.089844 578.136719 537.546875 577.390625 552.8125 576.648438 C 562.308594 576.089844 571.804688 575.902344 581.296875 574.601562 C 595.261719 572.554688 609.410156 572.367188 623.375 569.578125 C 628.03125 568.644531 633.058594 568.460938 637.710938 567.902344 C 643.484375 567.34375 649.441406 567.53125 655.398438 566.226562 C 658.566406 565.484375 661.917969 565.484375 665.082031 565.296875 C 674.578125 565.109375 683.140625 561.203125 692.449219 560.457031 C 693.566406 560.457031 694.683594 560.457031 695.617188 560.457031 C 694.871094 562.132812 694.125 563.621094 692.824219 564.925781 C 682.769531 574.230469 674.019531 584.835938 664.523438 594.699219 C 658.378906 601.027344 652.234375 607.355469 646.089844 613.867188 C 641.808594 618.332031 636.59375 620.753906 630.265625 620.753906 C 615.554688 620.9375 601.21875 622.800781 586.699219 623.917969 C 576.457031 624.847656 566.21875 624.847656 555.976562 625.21875 C 536.242188 625.964844 516.320312 626.707031 496.585938 627.265625 C 487.089844 627.636719 477.40625 627.636719 467.914062 627.453125 C 450.226562 627.265625 432.539062 627.824219 415.035156 629.128906 C 408.332031 629.683594 401.628906 629.5 395.113281 629.128906 C 384.6875 628.382812 374.261719 628.570312 363.835938 628.570312 C 337.210938 628.382812 310.402344 628.753906 283.777344 628.011719 C 257.898438 627.265625 231.832031 627.636719 205.949219 627.082031 C 195.898438 626.894531 186.214844 625.03125 176.535156 622.984375 C 174.300781 622.429688 172.625 621.3125 170.949219 619.824219 C 158.101562 607.355469 144.695312 595.628906 132.78125 582.230469 C 126.449219 576.277344 120.121094 570.320312 113.417969 564.925781 Z M 180.628906 499.230469 C 178.953125 499.230469 177.464844 499.230469 175.789062 499.417969 C 169.644531 500.347656 163.5 501.652344 157.355469 502.210938 C 143.953125 503.511719 130.917969 506.675781 118.070312 510.957031 C 113.605469 512.445312 109.507812 514.679688 105.597656 517.46875 C 101.128906 520.820312 100.382812 526.773438 104.109375 529.007812 C 110.996094 533.289062 118.445312 536.078125 127.007812 535.707031 C 135.574219 535.519531 144.324219 535.707031 152.886719 535.519531 C 155.867188 535.519531 159.03125 536.636719 162.011719 536.265625 C 166.292969 535.519531 170.574219 535.894531 174.859375 535.707031 C 175.601562 531.054688 176.535156 526.214844 177.277344 521.5625 C 178.023438 514.304688 180.445312 506.863281 180.628906 499.230469 Z M 643.296875 535.894531 C 654.65625 535.148438 666.011719 533.472656 677.554688 533.660156 C 677.929688 533.660156 678.300781 533.472656 678.671875 533.472656 C 685.933594 532.730469 693.007812 530.683594 700.457031 532.355469 C 703.433594 533.101562 705.484375 531.054688 707.160156 528.636719 C 708.835938 526.214844 707.71875 524.167969 706.226562 522.308594 C 704.738281 520.632812 703.0625 518.773438 700.828125 518.027344 C 697.664062 516.726562 694.5 515.238281 691.332031 514.304688 C 682.023438 511.328125 672.527344 508.910156 662.660156 507.605469 C 653.722656 506.488281 645.160156 504.441406 636.035156 504.441406 C 637.710938 514.863281 639.574219 525.285156 641.25 535.894531 C 641.808594 535.894531 642.554688 536.078125 643.296875 535.894531 Z M 643.296875 535.894531"/></g><path fill="#E2B808" d="M 415.222656 314.4375 C 430.488281 315.183594 445.757812 315.371094 460.835938 318.71875 C 462.886719 319.089844 464.933594 319.648438 466.980469 320.394531 C 467.539062 322.253906 469.214844 322.628906 470.703125 323.1875 C 475.546875 325.605469 480.386719 328.023438 485.226562 330.445312 C 495.09375 335.652344 504.402344 341.609375 512.222656 349.984375 C 520.042969 358.359375 527.492188 367.289062 533.449219 377.152344 C 537.917969 384.597656 542.386719 392.042969 544.992188 400.230469 C 550.765625 418.652344 553 437.632812 552.625 456.988281 C 552.441406 461.828125 551.882812 466.664062 550.207031 471.316406 C 547.414062 479.691406 542.945312 487.320312 537.546875 494.394531 C 532.703125 500.90625 526.746094 505.558594 519.484375 509.46875 C 509.804688 514.679688 499.003906 516.351562 488.949219 519.703125 C 485.414062 521.003906 481.691406 521.75 478.152344 518.957031 C 477.59375 518.398438 476.476562 518.585938 475.546875 518.585938 C 469.402344 518.585938 463.257812 518.398438 457.113281 518.773438 C 452.644531 519.144531 447.804688 520.261719 444.640625 523.238281 C 442.21875 525.472656 439.613281 526.03125 436.632812 526.960938 C 425.835938 529.9375 414.851562 530.867188 403.679688 530.683594 C 389.902344 530.308594 375.9375 530.496094 362.160156 529.753906 C 344.285156 528.820312 326.597656 529.566406 308.726562 528.820312 C 291.410156 528.078125 274.28125 527.148438 256.964844 527.332031 C 249.519531 527.332031 242.257812 525.65625 234.996094 526.214844 C 234.4375 526.214844 233.878906 526.03125 233.320312 526.03125 C 226.804688 525.101562 220.289062 523.984375 213.769531 523.050781 C 211.722656 522.867188 210.792969 522.121094 210.976562 520.074219 C 210.976562 518.957031 210.976562 517.84375 210.976562 516.910156 C 210.976562 514.121094 210.417969 511.699219 207.625 510.769531 C 204.648438 509.839844 201.296875 508.910156 198.875 511.328125 C 196.828125 513.5625 194.59375 516.351562 196.457031 520.074219 C 197.574219 522.308594 196.828125 523.425781 194.78125 522.867188 C 189.007812 521.378906 183.238281 522.496094 177.652344 521.9375 C 178.394531 514.304688 180.628906 507.046875 180.816406 499.417969 C 183.421875 488.066406 185.472656 476.34375 188.820312 465.175781 C 195.523438 447.496094 203.34375 430.375 212.46875 413.8125 C 216.9375 405.8125 222.707031 398.554688 228.851562 391.667969 C 238.535156 380.6875 249.144531 371.011719 260.875 362.078125 C 284.148438 344.402344 311.144531 335.46875 338.328125 326.535156 C 351.546875 322.070312 365.324219 319.277344 379.289062 317.042969 C 386.550781 315.929688 393.996094 315.371094 401.257812 314.625 C 405.167969 318.90625 407.773438 324.117188 410.382812 329.140625 C 412.800781 333.792969 415.035156 338.445312 417.269531 343.097656 C 417.828125 344.214844 418.386719 345.144531 419.691406 344.402344 C 420.992188 343.84375 420.808594 342.726562 420.433594 341.609375 C 419.132812 338.632812 418.015625 335.46875 416.152344 332.863281 C 411.5 326.722656 411.683594 320.765625 415.222656 314.4375 Z M 268.324219 498.117188 C 270.371094 498.117188 272.234375 497.929688 274.28125 498.117188 C 277.257812 498.300781 280.050781 497.371094 282.84375 497 C 284.894531 496.628906 286.570312 495.511719 287.128906 493.464844 C 287.6875 491.230469 285.636719 490.300781 284.335938 489.183594 C 283.03125 488.066406 281.167969 487.507812 279.492188 486.949219 C 277.632812 486.390625 276.515625 485.648438 278.003906 483.042969 C 280.425781 478.574219 279.121094 475.597656 274.46875 473.738281 C 272.234375 472.808594 270 472.25 267.765625 472.0625 C 265.15625 471.875 261.621094 472.0625 260.128906 470.203125 C 257.152344 466.664062 253.429688 465.734375 249.519531 464.433594 C 244.863281 462.945312 240.765625 464.433594 237.042969 467.222656 C 235.183594 468.710938 234.066406 470.574219 235.183594 472.808594 C 236.113281 474.855469 235.367188 476.15625 234.066406 477.644531 C 229.222656 483.414062 231.085938 489.371094 238.347656 491.789062 C 240.023438 492.347656 241.882812 492.53125 243.558594 493.277344 C 251.007812 497.371094 259.570312 498.300781 268.324219 498.117188 Z M 368.304688 417.535156 C 368.863281 415.488281 368.117188 413.628906 366.628906 412.699219 C 363.277344 410.09375 359.738281 412.324219 356.386719 413.257812 C 353.96875 414 351.546875 414.929688 351.175781 417.910156 C 351.175781 418.09375 351.175781 418.28125 351.175781 418.464844 C 352.292969 421.257812 350.242188 421.816406 348.382812 422.5625 C 345.589844 423.675781 342.609375 424.609375 340.191406 426.46875 C 337.023438 428.886719 337.582031 431.867188 341.121094 433.539062 C 342.238281 434.097656 343.542969 434.472656 344.84375 434.097656 C 351.734375 432.796875 358.808594 432.980469 365.324219 430.375 C 367.371094 429.632812 369.421875 428.886719 371.28125 427.957031 C 374.820312 425.910156 374.820312 423.117188 371.28125 421.070312 C 370.722656 420.886719 370.351562 420.515625 369.792969 420.328125 C 368.304688 420.140625 367.371094 419.398438 368.304688 417.535156 Z M 337.023438 370.453125 C 340.191406 370.453125 345.402344 367.847656 347.265625 365.058594 C 349.125 362.265625 347.824219 358.730469 345.03125 358.917969 C 340.933594 359.289062 336.839844 360.40625 333.859375 363.570312 C 332.554688 365.058594 332.554688 366.917969 333.300781 368.59375 C 334.046875 370.453125 335.535156 370.453125 337.023438 370.453125 Z M 351.359375 491.601562 C 354.710938 491.417969 357.691406 489.925781 359.925781 487.695312 C 361.414062 486.207031 361.601562 483.972656 360.484375 482.296875 C 359.367188 480.4375 357.503906 480.621094 355.644531 481.554688 C 353.410156 482.667969 351.175781 483.785156 348.941406 485.089844 C 347.265625 486.207031 346.519531 487.878906 347.265625 489.742188 C 348.007812 491.417969 349.683594 491.601562 351.359375 491.601562 Z M 497.144531 467.96875 C 494.164062 468.15625 488.019531 472.0625 487.089844 474.480469 C 486.160156 477.085938 488.019531 479.878906 490.625 479.691406 C 494.722656 479.507812 499.378906 475.226562 499.9375 471.316406 C 500.308594 468.898438 499.378906 467.78125 497.144531 467.96875 Z M 464.746094 398.742188 C 468.097656 398.554688 470.890625 397.066406 473.3125 395.019531 C 474.800781 393.714844 474.800781 391.855469 474.242188 389.992188 C 474.054688 388.878906 473.125 387.945312 472.007812 388.132812 C 468.097656 388.878906 464.375 389.992188 461.769531 393.15625 C 460.835938 394.273438 460.09375 395.578125 461.023438 397.066406 C 461.953125 398.554688 463.257812 398.742188 464.746094 398.742188 Z M 363.835938 498.117188 C 365.882812 497.558594 368.488281 497 370.539062 495.511719 C 372.398438 494.207031 372.398438 492.160156 371.65625 490.300781 C 370.910156 488.4375 369.234375 488.253906 367.558594 488.8125 C 365.136719 489.554688 362.71875 490.300781 361.230469 492.347656 C 360.484375 493.464844 358.808594 494.207031 359.738281 495.882812 C 360.296875 497.371094 361.601562 498.300781 363.835938 498.117188 Z M 252.683594 404.507812 C 252.871094 402.648438 251.007812 400.789062 248.960938 400.972656 C 246.726562 400.972656 242.628906 404.136719 242.070312 406.371094 C 241.324219 409.347656 243.558594 411.765625 246.539062 411.210938 C 249.332031 410.835938 252.496094 407.300781 252.683594 404.507812 Z M 436.261719 485.273438 C 434.769531 485.460938 432.539062 486.390625 430.863281 488.625 C 429.929688 489.925781 429.746094 491.789062 430.675781 493.089844 C 431.605469 494.578125 433.097656 495.136719 434.769531 494.394531 C 436.445312 493.648438 438.121094 493.277344 439.613281 492.347656 C 440.914062 491.601562 442.40625 490.300781 441.660156 488.4375 C 441.101562 486.207031 439.613281 485.089844 436.261719 485.273438 Z M 356.574219 370.640625 C 356.574219 368.59375 354.152344 366.917969 351.917969 367.664062 C 349.683594 368.40625 347.636719 369.335938 345.960938 371.011719 C 345.03125 371.941406 343.542969 372.875 344.472656 374.546875 C 345.402344 376.222656 346.890625 377.339844 348.941406 376.78125 C 351.359375 376.222656 353.59375 375.105469 355.457031 373.429688 C 356.203125 372.6875 356.761719 371.757812 356.574219 370.640625 Z M 348.941406 498.488281 C 348.382812 496.441406 347.078125 495.695312 345.21875 496.070312 C 342.609375 496.628906 340.003906 497.742188 337.957031 499.417969 C 336.839844 500.347656 335.90625 501.652344 336.464844 503.140625 C 337.210938 505 338.886719 505.933594 340.75 505.558594 C 344.101562 504.816406 346.332031 502.582031 348.195312 499.976562 C 348.941406 499.417969 348.941406 498.859375 348.941406 498.488281 Z M 509.617188 478.574219 C 511.292969 478.761719 512.78125 478.015625 514.273438 477.460938 C 517.4375 476.34375 517.808594 473.550781 515.390625 471.316406 C 513.15625 469.269531 509.058594 469.828125 506.824219 472.433594 C 505.894531 473.550781 504.960938 475.039062 505.707031 476.714844 C 506.453125 478.574219 507.941406 478.761719 509.617188 478.574219 Z M 476.476562 377.152344 C 474.988281 377.152344 470.332031 379.015625 469.402344 379.757812 C 468.097656 380.875 467.914062 382.179688 468.472656 383.667969 C 468.84375 384.96875 470.144531 385.527344 471.449219 385.527344 C 474.242188 385.714844 476.289062 384.226562 478.523438 383.109375 C 479.828125 382.363281 481.316406 381.433594 480.757812 379.757812 C 480.015625 377.898438 478.523438 376.96875 476.476562 377.152344 Z M 334.046875 380.6875 C 334.046875 378.082031 332.742188 376.78125 329.949219 376.96875 C 326.597656 377.152344 323.0625 379.945312 323.433594 381.992188 C 323.804688 384.226562 325.296875 385.527344 327.53125 385.339844 C 331.625 384.96875 334.230469 383.851562 334.046875 380.6875 Z M 241.699219 425.722656 C 245.234375 425.539062 248.585938 422.933594 248.585938 420.140625 C 248.402344 418.09375 246.910156 416.976562 244.304688 417.164062 C 240.953125 417.351562 237.789062 419.957031 237.789062 422.5625 C 237.601562 424.609375 239.09375 425.722656 241.699219 425.722656 Z M 592.839844 513.191406 C 591.351562 510.957031 588.558594 510.585938 586.324219 512.632812 C 583.160156 515.238281 582.042969 519.144531 583.71875 521.003906 C 584.648438 522.121094 585.953125 522.121094 587.257812 521.9375 C 589.675781 521.75 593.398438 517.65625 593.398438 514.679688 C 593.398438 514.492188 593.214844 513.746094 592.839844 513.191406 Z M 579.996094 526.589844 C 577.945312 525.65625 576.644531 527.148438 575.527344 528.820312 C 574.78125 529.9375 573.851562 531.242188 573.292969 532.542969 C 572.546875 534.21875 573.105469 535.707031 574.597656 536.824219 C 576.085938 537.753906 577.386719 538.3125 579.0625 537.195312 C 581.296875 535.894531 582.230469 533.847656 582.601562 531.425781 C 582.972656 529.195312 582.042969 527.519531 579.996094 526.589844 Z M 579.0625 519.144531 C 579.996094 517.46875 581.113281 515.238281 579.996094 513.191406 C 579.25 511.699219 577.761719 510.585938 576.085938 512.074219 C 574.039062 513.933594 571.988281 515.421875 570.871094 518.027344 C 569.941406 520.074219 571.246094 522.496094 574.222656 522.679688 C 575.527344 522.121094 577.945312 521.191406 579.0625 519.144531 Z M 585.582031 431.121094 C 587.441406 429.074219 586.699219 426.839844 584.089844 425.910156 C 581.484375 425.167969 576.269531 429.261719 576.644531 431.867188 C 576.828125 433.914062 578.320312 434.84375 580.179688 435.214844 C 582.601562 434.84375 583.90625 432.796875 585.582031 431.121094 Z M 596.9375 429.261719 C 594.515625 429.074219 590.609375 433.167969 590.609375 435.773438 C 590.609375 438.191406 592.46875 438.75 594.332031 438.566406 C 597.125 438.566406 600.101562 435.585938 600.101562 432.980469 C 600.101562 431.308594 598.425781 429.445312 596.9375 429.261719 Z M 596.9375 429.261719"/></svg>