<svg xmlns="http://www.w3.org/2000/svg" width="810" viewBox="0 0 810 810" height="810" version="1.0"><g fill="#004AAD"><g><g><path d="M 20.140625 6.46875 C 22.636719 3.675781 24.84375 3.085938 27.929688 3.675781 C 39.101562 5.585938 50.128906 3.527344 61.152344 2.5 C 76.585938 1.027344 91.289062 -3.527344 104.8125 -11.320312 C 128.183594 -30.722656 99.960938 -47.335938 73.207031 -57.332031 C 101.285156 -66.445312 104.8125 -85.847656 76.585938 -97.460938 C 56.300781 -105.839844 35.28125 -107.3125 13.816406 -103.046875 C 8.527344 -101.726562 3.085938 -100.402344 3.675781 -95.402344 C 7.351562 -66.152344 7.9375 -36.75 8.085938 -7.351562 C 8.085938 0.882812 13.082031 14.699219 20.140625 6.46875 Z M 38.367188 -59.09375 C 17.789062 -57.917969 21.316406 -63.652344 21.316406 -80.117188 C 20.582031 -92.316406 20.582031 -92.316406 32.191406 -92.316406 C 49.390625 -92.167969 88.640625 -87.320312 86.730469 -75.410156 C 85.996094 -69.679688 52.773438 -58.507812 38.367188 -59.09375 Z M 60.417969 -12.199219 C 48.65625 -12.199219 47.628906 -12.199219 36.015625 -12.9375 C 23.078125 -13.816406 23.078125 -13.964844 23.078125 -27.488281 C 23.078125 -42.925781 22.933594 -43.21875 38.660156 -44.835938 C 53.507812 -46.304688 68.503906 -46.597656 82.910156 -41.308594 C 113.339844 -32.929688 102.164062 -12.640625 60.417969 -12.199219 Z M 60.417969 -12.199219" transform="translate(112.423 377.062)"/></g></g></g><g fill="#004AAD"><g><g><path d="M 19.84375 -16.171875 C 43.953125 13.671875 87.171875 -2.644531 99.078125 -40.277344 C 106.136719 -62.035156 105.253906 -84.230469 104.664062 -106.429688 C 104.664062 -109.074219 102.753906 -115.101562 98.636719 -115.101562 C 92.167969 -114.660156 92.464844 -102.164062 93.347656 -94.667969 C 94.375 -83.054688 93.785156 -71.441406 91.140625 -60.269531 C 87.90625 -47.1875 82.910156 -35.132812 72.175781 -26.019531 C 52.480469 -9.261719 32.191406 -13.816406 22.050781 -37.78125 C 15.582031 -53.214844 16.609375 -72.03125 16.609375 -96.140625 C 16.464844 -101.726562 16.464844 -107.3125 15.875 -112.898438 C 15.730469 -114.808594 14.113281 -116.71875 11.613281 -116.71875 C 7.644531 -117.011719 6.613281 -110.984375 5.878906 -106.429688 C 3.820312 -92.023438 3.085938 -77.46875 4.117188 -62.917969 C 5.292969 -46.011719 8.96875 -29.988281 19.84375 -16.171875 Z M 19.84375 -16.171875" transform="translate(229.571 377.062)"/></g></g></g><g fill="#004AAD"><g><g><path d="M 9.703125 6.761719 C 17.640625 7.054688 17.933594 -2.5 18.226562 -10.730469 C 18.816406 -32.191406 18.964844 -76.441406 21.167969 -81.734375 C 32.929688 -71.589844 43.953125 -62.328125 54.832031 -52.921875 C 67.472656 -41.894531 77.324219 -42.042969 89.671875 -53.65625 C 98.050781 -61.59375 106.28125 -69.679688 115.984375 -78.941406 C 120.101562 -53.363281 115.25 -27.636719 123.335938 -5.878906 C 125.097656 -1.027344 127.890625 4.410156 134.210938 2.5 C 139.796875 0.882812 139.0625 -4.703125 138.917969 -9.554688 C 138.917969 -9.847656 138.769531 -10.289062 138.769531 -10.730469 C 136.859375 -25.136719 136.269531 -39.691406 135.828125 -54.242188 C 135.535156 -66.296875 134.210938 -78.203125 132.59375 -90.113281 C 130.832031 -102.753906 123.921875 -105.398438 114.367188 -97.316406 C 102.019531 -86.582031 89.523438 -76.148438 78.5 -64.386719 C 71.441406 -56.890625 69.53125 -57.917969 63.359375 -64.238281 C 52.183594 -75.558594 39.691406 -85.261719 29.105469 -97.167969 C 22.195312 -105.105469 12.640625 -104.222656 9.113281 -96.433594 C 7.644531 -93.347656 7.496094 -89.816406 7.496094 -86.4375 C 7.054688 -69.238281 6.46875 -52.183594 4.851562 -35.132812 C 3.820312 -23.667969 4.261719 -12.054688 4.117188 -0.441406 C 4.117188 3.234375 5.292969 6.46875 9.703125 6.761719 Z M 9.703125 6.761719" transform="translate(338.34 377.062)"/></g></g></g><g fill="#004AAD"><g><g><path d="M 20.140625 6.46875 C 22.636719 3.675781 24.84375 3.085938 27.929688 3.675781 C 39.101562 5.585938 50.128906 3.527344 61.152344 2.5 C 76.585938 1.027344 91.289062 -3.527344 104.8125 -11.320312 C 128.183594 -30.722656 99.960938 -47.335938 73.207031 -57.332031 C 101.285156 -66.445312 104.8125 -85.847656 76.585938 -97.460938 C 56.300781 -105.839844 35.28125 -107.3125 13.816406 -103.046875 C 8.527344 -101.726562 3.085938 -100.402344 3.675781 -95.402344 C 7.351562 -66.152344 7.9375 -36.75 8.085938 -7.351562 C 8.085938 0.882812 13.082031 14.699219 20.140625 6.46875 Z M 38.367188 -59.09375 C 17.789062 -57.917969 21.316406 -63.652344 21.316406 -80.117188 C 20.582031 -92.316406 20.582031 -92.316406 32.191406 -92.316406 C 49.390625 -92.167969 88.640625 -87.320312 86.730469 -75.410156 C 85.996094 -69.679688 52.773438 -58.507812 38.367188 -59.09375 Z M 60.417969 -12.199219 C 48.65625 -12.199219 47.628906 -12.199219 36.015625 -12.9375 C 23.078125 -13.816406 23.078125 -13.964844 23.078125 -27.488281 C 23.078125 -42.925781 22.933594 -43.21875 38.660156 -44.835938 C 53.507812 -46.304688 68.503906 -46.597656 82.910156 -41.308594 C 113.339844 -32.929688 102.164062 -12.640625 60.417969 -12.199219 Z M 60.417969 -12.199219" transform="translate(480.623 377.062)"/></g></g></g><g fill="#004AAD"><g><g><path d="M 7.054688 3.820312 C 15.433594 6.46875 21.609375 -13.964844 25.871094 -25.578125 C 27.34375 -29.398438 29.695312 -30.871094 33.808594 -30.136719 C 42.628906 -28.519531 51.746094 -28.664062 60.710938 -29.105469 C 68.207031 -29.546875 72.765625 -27.488281 74.824219 -19.699219 C 77.617188 -9.261719 87.171875 3.085938 93.347656 0 C 97.460938 -1.910156 96.285156 -8.378906 95.109375 -11.613281 C 86.730469 -38.367188 59.683594 -93.050781 58.359375 -94.816406 C 52.183594 -101.871094 47.628906 -101.285156 43.367188 -92.464844 C 32.78125 -71.441406 23.960938 -49.539062 12.054688 -29.105469 C 7.496094 -21.460938 4.996094 -12.640625 3.820312 -3.675781 C 3.527344 -0.589844 3.382812 2.792969 7.054688 3.820312 Z M 35.574219 -45.863281 C 40.277344 -56.007812 44.101562 -64.535156 49.097656 -75.558594 L 62.179688 -45.863281 Z M 35.574219 -45.863281" transform="translate(597.77 377.062)"/></g></g></g><g fill="#FFAB49"><g><g><path d="M 9.703125 6.761719 C 17.640625 7.054688 17.933594 -2.5 18.226562 -10.730469 C 18.816406 -32.191406 18.964844 -76.441406 21.167969 -81.734375 C 32.929688 -71.589844 43.953125 -62.328125 54.832031 -52.921875 C 67.472656 -41.894531 77.324219 -42.042969 89.671875 -53.65625 C 98.050781 -61.59375 106.28125 -69.679688 115.984375 -78.941406 C 120.101562 -53.363281 115.25 -27.636719 123.335938 -5.878906 C 125.097656 -1.027344 127.890625 4.410156 134.210938 2.5 C 139.796875 0.882812 139.0625 -4.703125 138.917969 -9.554688 C 138.917969 -9.847656 138.769531 -10.289062 138.769531 -10.730469 C 136.859375 -25.136719 136.269531 -39.691406 135.828125 -54.242188 C 135.535156 -66.296875 134.210938 -78.203125 132.59375 -90.113281 C 130.832031 -102.753906 123.921875 -105.398438 114.367188 -97.316406 C 102.019531 -86.582031 89.523438 -76.148438 78.5 -64.386719 C 71.441406 -56.890625 69.53125 -57.917969 63.359375 -64.238281 C 52.183594 -75.558594 39.691406 -85.261719 29.105469 -97.167969 C 22.195312 -105.105469 12.640625 -104.222656 9.113281 -96.433594 C 7.644531 -93.347656 7.496094 -89.816406 7.496094 -86.4375 C 7.054688 -69.238281 6.46875 -52.183594 4.851562 -35.132812 C 3.820312 -23.667969 4.261719 -12.054688 4.117188 -0.441406 C 4.117188 3.234375 5.292969 6.46875 9.703125 6.761719 Z M 9.703125 6.761719" transform="translate(68.772 523.405)"/></g></g></g><g fill="#FFAB49"><g><g><path d="M 18.816406 -0.734375 C 28.078125 0.589844 75.117188 0.292969 84.085938 -1.765625 C 89.082031 -2.792969 95.550781 -3.234375 95.84375 -9.554688 C 95.992188 -16.171875 89.671875 -16.757812 84.527344 -17.640625 C 78.203125 -18.667969 38.957031 -17.933594 32.046875 -17.789062 C 22.195312 -17.640625 22.195312 -17.640625 22.492188 -26.902344 L 22.492188 -42.335938 C 22.636719 -52.332031 22.636719 -52.480469 33.222656 -52.773438 C 47.777344 -53.363281 62.328125 -54.539062 76.585938 -57.476562 C 80.410156 -58.210938 86.730469 -57.332031 86.730469 -62.917969 C 86.582031 -69.089844 80.410156 -67.179688 76.585938 -67.472656 C 60.859375 -68.945312 44.980469 -69.824219 29.253906 -67.472656 C 23.519531 -66.589844 21.460938 -68.648438 21.316406 -74.089844 C 21.019531 -80.558594 20.726562 -86.878906 19.699219 -93.347656 C 18.964844 -98.492188 20.875 -100.109375 25.871094 -100.109375 C 39.542969 -100.109375 53.363281 -99.960938 66.886719 -98.34375 C 76.292969 -97.167969 85.703125 -97.460938 95.109375 -97.609375 C 98.933594 -97.753906 102.019531 -99.519531 102.164062 -103.636719 C 102.164062 -107.015625 99.519531 -108.929688 96.433594 -109.664062 C 93.199219 -110.546875 53.066406 -112.601562 31.164062 -113.484375 C 24.402344 -113.777344 17.347656 -113.632812 10.878906 -111.28125 C 7.496094 -110.105469 4.410156 -108.78125 5.4375 -104.078125 C 8.527344 -89.671875 5.144531 -75.117188 4.996094 -60.710938 C 4.703125 -46.160156 3.527344 -31.605469 3.675781 -17.199219 C 3.820312 -5.144531 6.613281 -2.644531 18.816406 -0.734375 Z M 18.816406 -0.734375" transform="translate(211.054 523.405)"/></g></g></g><g fill="#FFAB49"><g><g><path d="M 19.84375 -16.171875 C 43.953125 13.671875 87.171875 -2.644531 99.078125 -40.277344 C 106.136719 -62.035156 105.253906 -84.230469 104.664062 -106.429688 C 104.664062 -109.074219 102.753906 -115.101562 98.636719 -115.101562 C 92.167969 -114.660156 92.464844 -102.164062 93.347656 -94.667969 C 94.375 -83.054688 93.785156 -71.441406 91.140625 -60.269531 C 87.90625 -47.1875 82.910156 -35.132812 72.175781 -26.019531 C 52.480469 -9.261719 32.191406 -13.816406 22.050781 -37.78125 C 15.582031 -53.214844 16.609375 -72.03125 16.609375 -96.140625 C 16.464844 -101.726562 16.464844 -107.3125 15.875 -112.898438 C 15.730469 -114.808594 14.113281 -116.71875 11.613281 -116.71875 C 7.644531 -117.011719 6.613281 -110.984375 5.878906 -106.429688 C 3.820312 -92.023438 3.085938 -77.46875 4.117188 -62.917969 C 5.292969 -46.011719 8.96875 -29.988281 19.84375 -16.171875 Z M 19.84375 -16.171875" transform="translate(316.884 523.405)"/></g></g></g><g fill="#FF1616"><g><g><path d="M 9.703125 6.761719 C 17.640625 7.054688 17.933594 -2.5 18.226562 -10.730469 C 18.816406 -32.191406 18.964844 -76.441406 21.167969 -81.734375 C 32.929688 -71.589844 43.953125 -62.328125 54.832031 -52.921875 C 67.472656 -41.894531 77.324219 -42.042969 89.671875 -53.65625 C 98.050781 -61.59375 106.28125 -69.679688 115.984375 -78.941406 C 120.101562 -53.363281 115.25 -27.636719 123.335938 -5.878906 C 125.097656 -1.027344 127.890625 4.410156 134.210938 2.5 C 139.796875 0.882812 139.0625 -4.703125 138.917969 -9.554688 C 138.917969 -9.847656 138.769531 -10.289062 138.769531 -10.730469 C 136.859375 -25.136719 136.269531 -39.691406 135.828125 -54.242188 C 135.535156 -66.296875 134.210938 -78.203125 132.59375 -90.113281 C 130.832031 -102.753906 123.921875 -105.398438 114.367188 -97.316406 C 102.019531 -86.582031 89.523438 -76.148438 78.5 -64.386719 C 71.441406 -56.890625 69.53125 -57.917969 63.359375 -64.238281 C 52.183594 -75.558594 39.691406 -85.261719 29.105469 -97.167969 C 22.195312 -105.105469 12.640625 -104.222656 9.113281 -96.433594 C 7.644531 -93.347656 7.496094 -89.816406 7.496094 -86.4375 C 7.054688 -69.238281 6.46875 -52.183594 4.851562 -35.132812 C 3.820312 -23.667969 4.261719 -12.054688 4.117188 -0.441406 C 4.117188 3.234375 5.292969 6.46875 9.703125 6.761719 Z M 9.703125 6.761719" transform="translate(499.119 523.405)"/></g></g></g><g fill="#FF1616"><g><g><path d="M 7.054688 3.820312 C 15.433594 6.46875 21.609375 -13.964844 25.871094 -25.578125 C 27.34375 -29.398438 29.695312 -30.871094 33.808594 -30.136719 C 42.628906 -28.519531 51.746094 -28.664062 60.710938 -29.105469 C 68.207031 -29.546875 72.765625 -27.488281 74.824219 -19.699219 C 77.617188 -9.261719 87.171875 3.085938 93.347656 0 C 97.460938 -1.910156 96.285156 -8.378906 95.109375 -11.613281 C 86.730469 -38.367188 59.683594 -93.050781 58.359375 -94.816406 C 52.183594 -101.871094 47.628906 -101.285156 43.367188 -92.464844 C 32.78125 -71.441406 23.960938 -49.539062 12.054688 -29.105469 C 7.496094 -21.460938 4.996094 -12.640625 3.820312 -3.675781 C 3.527344 -0.589844 3.382812 2.792969 7.054688 3.820312 Z M 35.574219 -45.863281 C 40.277344 -56.007812 44.101562 -64.535156 49.097656 -75.558594 L 62.179688 -45.863281 Z M 35.574219 -45.863281" transform="translate(641.4 523.405)"/></g></g></g></svg>