<svg xmlns="http://www.w3.org/2000/svg" width="810" viewBox="0 0 810 810" height="810" version="1.0"><g fill="#FFF"><g><g><path d="M 20.140625 6.46875 C 22.640625 3.675781 24.84375 3.085938 27.929688 3.675781 C 39.105469 5.585938 50.128906 3.527344 61.15625 2.5 C 76.589844 1.027344 91.292969 -3.527344 104.816406 -11.320312 C 128.191406 -30.722656 99.964844 -47.335938 73.210938 -57.332031 C 101.289062 -66.449219 104.816406 -85.851562 76.589844 -97.464844 C 56.304688 -105.84375 35.28125 -107.316406 13.820312 -103.050781 C 8.527344 -101.730469 3.085938 -100.40625 3.675781 -95.40625 C 7.351562 -66.152344 7.9375 -36.75 8.085938 -7.351562 C 8.085938 0.882812 13.082031 14.699219 20.140625 6.46875 Z M 38.367188 -59.097656 C 17.789062 -57.921875 21.316406 -63.652344 21.316406 -80.117188 C 20.582031 -92.320312 20.582031 -92.320312 32.195312 -92.320312 C 49.394531 -92.171875 88.644531 -87.324219 86.734375 -75.414062 C 86 -69.679688 52.777344 -58.507812 38.367188 -59.097656 Z M 60.421875 -12.203125 C 48.660156 -12.203125 47.628906 -12.203125 36.015625 -12.9375 C 23.082031 -13.820312 23.082031 -13.964844 23.082031 -27.492188 C 23.082031 -42.925781 22.933594 -43.21875 38.664062 -44.835938 C 53.511719 -46.308594 68.503906 -46.601562 82.914062 -41.308594 C 113.34375 -32.929688 102.171875 -12.644531 60.421875 -12.203125 Z M 60.421875 -12.203125" transform="translate(112.394 377.171)"/></g></g></g><g fill="#FFF"><g><g><path d="M 19.847656 -16.171875 C 43.957031 13.671875 87.175781 -2.644531 99.082031 -40.28125 C 106.140625 -62.039062 105.257812 -84.234375 104.667969 -106.433594 C 104.667969 -109.078125 102.757812 -115.105469 98.640625 -115.105469 C 92.171875 -114.664062 92.46875 -102.171875 93.351562 -94.671875 C 94.378906 -83.058594 93.789062 -71.445312 91.144531 -60.273438 C 87.910156 -47.1875 82.914062 -35.136719 72.179688 -26.019531 C 52.480469 -9.261719 32.195312 -13.820312 22.050781 -37.78125 C 15.582031 -53.214844 16.613281 -72.035156 16.613281 -96.144531 C 16.464844 -101.730469 16.464844 -107.316406 15.875 -112.902344 C 15.730469 -114.8125 14.113281 -116.722656 11.613281 -116.722656 C 7.644531 -117.019531 6.617188 -110.992188 5.878906 -106.433594 C 3.820312 -92.027344 3.085938 -77.472656 4.117188 -62.917969 C 5.292969 -46.011719 8.96875 -29.988281 19.847656 -16.171875 Z M 19.847656 -16.171875" transform="translate(229.554 377.171)"/></g></g></g><g fill="#FFF"><g><g><path d="M 9.703125 6.761719 C 17.640625 7.054688 17.933594 -2.5 18.230469 -10.730469 C 18.816406 -32.195312 18.964844 -76.445312 21.167969 -81.734375 C 32.929688 -71.59375 43.957031 -62.332031 54.832031 -52.921875 C 67.476562 -41.898438 77.324219 -42.042969 89.675781 -53.65625 C 98.054688 -61.597656 106.285156 -69.679688 115.988281 -78.941406 C 120.105469 -53.363281 115.253906 -27.636719 123.339844 -5.878906 C 125.101562 -1.027344 127.898438 4.410156 134.21875 2.5 C 139.804688 0.882812 139.070312 -4.703125 138.921875 -9.554688 C 138.921875 -9.847656 138.773438 -10.289062 138.773438 -10.730469 C 136.863281 -25.136719 136.277344 -39.691406 135.835938 -54.246094 C 135.539062 -66.300781 134.21875 -78.207031 132.601562 -90.117188 C 130.835938 -102.757812 123.925781 -105.40625 114.371094 -97.320312 C 102.023438 -86.585938 89.527344 -76.148438 78.503906 -64.390625 C 71.445312 -56.890625 69.535156 -57.921875 63.359375 -64.242188 C 52.1875 -75.5625 39.691406 -85.265625 29.109375 -97.171875 C 22.199219 -105.109375 12.644531 -104.226562 9.113281 -96.4375 C 7.644531 -93.351562 7.496094 -89.820312 7.496094 -86.441406 C 7.054688 -69.242188 6.46875 -52.1875 4.851562 -35.136719 C 3.820312 -23.667969 4.261719 -12.054688 4.117188 -0.441406 C 4.117188 3.234375 5.292969 6.46875 9.703125 6.761719 Z M 9.703125 6.761719" transform="translate(338.334 377.171)"/></g></g></g><g fill="#FFF"><g><g><path d="M 20.140625 6.46875 C 22.640625 3.675781 24.84375 3.085938 27.929688 3.675781 C 39.105469 5.585938 50.128906 3.527344 61.15625 2.5 C 76.589844 1.027344 91.292969 -3.527344 104.816406 -11.320312 C 128.191406 -30.722656 99.964844 -47.335938 73.210938 -57.332031 C 101.289062 -66.449219 104.816406 -85.851562 76.589844 -97.464844 C 56.304688 -105.84375 35.28125 -107.316406 13.820312 -103.050781 C 8.527344 -101.730469 3.085938 -100.40625 3.675781 -95.40625 C 7.351562 -66.152344 7.9375 -36.75 8.085938 -7.351562 C 8.085938 0.882812 13.082031 14.699219 20.140625 6.46875 Z M 38.367188 -59.097656 C 17.789062 -57.921875 21.316406 -63.652344 21.316406 -80.117188 C 20.582031 -92.320312 20.582031 -92.320312 32.195312 -92.320312 C 49.394531 -92.171875 88.644531 -87.324219 86.734375 -75.414062 C 86 -69.679688 52.777344 -58.507812 38.367188 -59.097656 Z M 60.421875 -12.203125 C 48.660156 -12.203125 47.628906 -12.203125 36.015625 -12.9375 C 23.082031 -13.820312 23.082031 -13.964844 23.082031 -27.492188 C 23.082031 -42.925781 22.933594 -43.21875 38.664062 -44.835938 C 53.511719 -46.308594 68.503906 -46.601562 82.914062 -41.308594 C 113.34375 -32.929688 102.171875 -12.644531 60.421875 -12.203125 Z M 60.421875 -12.203125" transform="translate(480.63 377.171)"/></g></g></g><g fill="#FFF"><g><g><path d="M 7.054688 3.820312 C 15.4375 6.46875 21.609375 -13.964844 25.875 -25.578125 C 27.34375 -29.402344 29.695312 -30.871094 33.8125 -30.136719 C 42.632812 -28.519531 51.746094 -28.667969 60.714844 -29.109375 C 68.210938 -29.546875 72.769531 -27.492188 74.828125 -19.699219 C 77.621094 -9.261719 87.175781 3.085938 93.351562 0 C 97.464844 -1.910156 96.289062 -8.378906 95.113281 -11.613281 C 86.734375 -38.367188 59.683594 -93.054688 58.363281 -94.820312 C 52.1875 -101.875 47.628906 -101.289062 43.367188 -92.46875 C 32.78125 -71.445312 23.960938 -49.542969 12.054688 -29.109375 C 7.496094 -21.464844 5 -12.644531 3.820312 -3.675781 C 3.527344 -0.589844 3.382812 2.792969 7.054688 3.820312 Z M 35.574219 -45.867188 C 40.28125 -56.011719 44.101562 -64.535156 49.101562 -75.5625 L 62.183594 -45.867188 Z M 35.574219 -45.867188" transform="translate(597.789 377.171)"/></g></g></g><g fill="#FFF"><g><g><path d="M 9.703125 6.761719 C 17.640625 7.054688 17.933594 -2.5 18.230469 -10.730469 C 18.816406 -32.195312 18.964844 -76.445312 21.167969 -81.734375 C 32.929688 -71.59375 43.957031 -62.332031 54.832031 -52.921875 C 67.476562 -41.898438 77.324219 -42.042969 89.675781 -53.65625 C 98.054688 -61.597656 106.285156 -69.679688 115.988281 -78.941406 C 120.105469 -53.363281 115.253906 -27.636719 123.339844 -5.878906 C 125.101562 -1.027344 127.898438 4.410156 134.21875 2.5 C 139.804688 0.882812 139.070312 -4.703125 138.921875 -9.554688 C 138.921875 -9.847656 138.773438 -10.289062 138.773438 -10.730469 C 136.863281 -25.136719 136.277344 -39.691406 135.835938 -54.246094 C 135.539062 -66.300781 134.21875 -78.207031 132.601562 -90.117188 C 130.835938 -102.757812 123.925781 -105.40625 114.371094 -97.320312 C 102.023438 -86.585938 89.527344 -76.148438 78.503906 -64.390625 C 71.445312 -56.890625 69.535156 -57.921875 63.359375 -64.242188 C 52.1875 -75.5625 39.691406 -85.265625 29.109375 -97.171875 C 22.199219 -105.109375 12.644531 -104.226562 9.113281 -96.4375 C 7.644531 -93.351562 7.496094 -89.820312 7.496094 -86.441406 C 7.054688 -69.242188 6.46875 -52.1875 4.851562 -35.136719 C 3.820312 -23.667969 4.261719 -12.054688 4.117188 -0.441406 C 4.117188 3.234375 5.292969 6.46875 9.703125 6.761719 Z M 9.703125 6.761719" transform="translate(68.742 524.171)"/></g></g></g><g fill="#FFF"><g><g><path d="M 18.816406 -0.734375 C 28.078125 0.589844 75.121094 0.292969 84.089844 -1.765625 C 89.085938 -2.792969 95.554688 -3.234375 95.847656 -9.554688 C 95.996094 -16.171875 89.675781 -16.757812 84.53125 -17.640625 C 78.207031 -18.671875 38.957031 -17.933594 32.046875 -17.789062 C 22.199219 -17.640625 22.199219 -17.640625 22.492188 -26.902344 L 22.492188 -42.339844 C 22.640625 -52.335938 22.640625 -52.480469 33.222656 -52.777344 C 47.777344 -53.363281 62.332031 -54.539062 76.589844 -57.480469 C 80.414062 -58.214844 86.734375 -57.332031 86.734375 -62.917969 C 86.585938 -69.09375 80.414062 -67.183594 76.589844 -67.476562 C 60.859375 -68.945312 44.984375 -69.828125 29.253906 -67.476562 C 23.519531 -66.59375 21.464844 -68.652344 21.316406 -74.089844 C 21.023438 -80.558594 20.726562 -86.882812 19.699219 -93.351562 C 18.964844 -98.496094 20.875 -100.113281 25.875 -100.113281 C 39.546875 -100.113281 53.363281 -99.964844 66.886719 -98.347656 C 76.296875 -97.171875 85.707031 -97.464844 95.113281 -97.613281 C 98.9375 -97.761719 102.023438 -99.523438 102.171875 -103.640625 C 102.171875 -107.019531 99.523438 -108.933594 96.4375 -109.667969 C 93.203125 -110.550781 53.070312 -112.609375 31.164062 -113.488281 C 24.402344 -113.785156 17.347656 -113.636719 10.878906 -111.285156 C 7.496094 -110.109375 4.410156 -108.785156 5.4375 -104.082031 C 8.527344 -89.675781 5.144531 -75.121094 5 -60.714844 C 4.703125 -46.160156 3.527344 -31.605469 3.675781 -17.199219 C 3.820312 -5.144531 6.617188 -2.644531 18.816406 -0.734375 Z M 18.816406 -0.734375" transform="translate(211.038 524.171)"/></g></g></g><g fill="#FFF"><g><g><path d="M 19.847656 -16.171875 C 43.957031 13.671875 87.175781 -2.644531 99.082031 -40.28125 C 106.140625 -62.039062 105.257812 -84.234375 104.667969 -106.433594 C 104.667969 -109.078125 102.757812 -115.105469 98.640625 -115.105469 C 92.171875 -114.664062 92.46875 -102.171875 93.351562 -94.671875 C 94.378906 -83.058594 93.789062 -71.445312 91.144531 -60.273438 C 87.910156 -47.1875 82.914062 -35.136719 72.179688 -26.019531 C 52.480469 -9.261719 32.195312 -13.820312 22.050781 -37.78125 C 15.582031 -53.214844 16.613281 -72.035156 16.613281 -96.144531 C 16.464844 -101.730469 16.464844 -107.316406 15.875 -112.902344 C 15.730469 -114.8125 14.113281 -116.722656 11.613281 -116.722656 C 7.644531 -117.019531 6.617188 -110.992188 5.878906 -106.433594 C 3.820312 -92.027344 3.085938 -77.472656 4.117188 -62.917969 C 5.292969 -46.011719 8.96875 -29.988281 19.847656 -16.171875 Z M 19.847656 -16.171875" transform="translate(316.878 524.171)"/></g></g></g><g fill="#FFF"><g><g><path d="M 9.703125 6.761719 C 17.640625 7.054688 17.933594 -2.5 18.230469 -10.730469 C 18.816406 -32.195312 18.964844 -76.445312 21.167969 -81.734375 C 32.929688 -71.59375 43.957031 -62.332031 54.832031 -52.921875 C 67.476562 -41.898438 77.324219 -42.042969 89.675781 -53.65625 C 98.054688 -61.597656 106.285156 -69.679688 115.988281 -78.941406 C 120.105469 -53.363281 115.253906 -27.636719 123.339844 -5.878906 C 125.101562 -1.027344 127.898438 4.410156 134.21875 2.5 C 139.804688 0.882812 139.070312 -4.703125 138.921875 -9.554688 C 138.921875 -9.847656 138.773438 -10.289062 138.773438 -10.730469 C 136.863281 -25.136719 136.277344 -39.691406 135.835938 -54.246094 C 135.539062 -66.300781 134.21875 -78.207031 132.601562 -90.117188 C 130.835938 -102.757812 123.925781 -105.40625 114.371094 -97.320312 C 102.023438 -86.585938 89.527344 -76.148438 78.503906 -64.390625 C 71.445312 -56.890625 69.535156 -57.921875 63.359375 -64.242188 C 52.1875 -75.5625 39.691406 -85.265625 29.109375 -97.171875 C 22.199219 -105.109375 12.644531 -104.226562 9.113281 -96.4375 C 7.644531 -93.351562 7.496094 -89.820312 7.496094 -86.441406 C 7.054688 -69.242188 6.46875 -52.1875 4.851562 -35.136719 C 3.820312 -23.667969 4.261719 -12.054688 4.117188 -0.441406 C 4.117188 3.234375 5.292969 6.46875 9.703125 6.761719 Z M 9.703125 6.761719" transform="translate(499.158 524.171)"/></g></g></g><g fill="#FFF"><g><g><path d="M 7.054688 3.820312 C 15.4375 6.46875 21.609375 -13.964844 25.875 -25.578125 C 27.34375 -29.402344 29.695312 -30.871094 33.8125 -30.136719 C 42.632812 -28.519531 51.746094 -28.667969 60.714844 -29.109375 C 68.210938 -29.546875 72.769531 -27.492188 74.828125 -19.699219 C 77.621094 -9.261719 87.175781 3.085938 93.351562 0 C 97.464844 -1.910156 96.289062 -8.378906 95.113281 -11.613281 C 86.734375 -38.367188 59.683594 -93.054688 58.363281 -94.820312 C 52.1875 -101.875 47.628906 -101.289062 43.367188 -92.46875 C 32.78125 -71.445312 23.960938 -49.542969 12.054688 -29.109375 C 7.496094 -21.464844 5 -12.644531 3.820312 -3.675781 C 3.527344 -0.589844 3.382812 2.792969 7.054688 3.820312 Z M 35.574219 -45.867188 C 40.28125 -56.011719 44.101562 -64.535156 49.101562 -75.5625 L 62.183594 -45.867188 Z M 35.574219 -45.867188" transform="translate(641.454 524.171)"/></g></g></g></svg>